<?xml version="1.0" encoding="utf-8"?>
<!-- Generator: Adobe Illustrator 22.1.0, SVG Export Plug-In . SVG Version: 6.00 Build 0)  -->
<svg version="1.1" id="Layer_1" xmlns="http://www.w3.org/2000/svg" xmlns:xlink="http://www.w3.org/1999/xlink" x="0px" y="0px"
	 viewBox="0 0 700 500" style="enable-background:new 0 0 700 500;" xml:space="preserve">
<style type="text/css">
	.st0{fill:#FF8800;}
</style>
<g>
	<path class="st0" d="M463.2,10c-27.8-0.5-55.7-0.3-83.5-0.7c-31-0.4-61.2,3.5-90.5,14.1c-45.2,16.3-79.8,46.3-109,83.6
		C149.6,146,112.7,177,65.5,194.8c-15.2,5.7-29.1,14.4-42.7,23.4c-13.1,8.7-20.6,20.6-22.2,36.4c-1.4,12.8-0.3,25.4,1.8,38
		c9.1,55,36,100.1,77.4,136.9C117.6,463,161.6,482.7,212,488c38.4,4,76.8,2.8,115.3,1.7c17.8-0.5,30.6-13.2,31.5-29.9
		c1.1-19.3-8.5-31.5-27.8-34.7c-5.2-0.9-10.6-1-15.9-1.1c-29.3-0.6-58.5,1.4-87.8-1.5c-80.5-7.9-137.6-56-157.9-133.7
		c-4.3-16.4-2.4-21.1,13.3-27.6c65.7-27,118.5-70,161.4-126.4c27-35.5,63.6-54.2,108.4-57.7c33.4-2.6,66.9-1.5,100.3-1.4
		c31.9,0.1,62.3,7.4,89.8,23.6c65,38.4,97.6,95.4,89.1,170.8c-8.1,71.3-49.1,119.3-116.7,143.7c-25.2,9.1-21.8,6.4-22.1-18.2V165
		c0-9.9-3.3-18.2-9.8-24.7c-6.5-6.5-14.8-9.8-24.7-9.8c-9.5,0-17.6,3.4-24.1,10.2c-6.4,6.7-9.7,14.9-9.7,24.3v291.7
		c0,9.4,3.3,17.5,9.8,24.1c6.5,6.5,14.6,9.7,24,9.7c0.1,0,0.2-0.1,0.4-0.1l0,0.1c17.5,0,25.6-1.2,43.2-4.4
		c126.9-23.3,216.7-143.3,194.7-274.5C677.6,98.5,577.8,12,463.2,10z"/>
	<path class="st0" d="M304,157.9c-10.4,0-19.3,3.7-26.7,11.1c-7.4,7.4-11.1,16.4-11.1,26.7v2.7c0,10.3,3.8,19.3,11.1,26.7
		c7.4,7.4,16.4,11.1,26.7,11.1h4.1c10.4,0,19.3-3.7,26.7-11.1c7.4-7.4,11.1-16.4,11.1-26.7v-2.7c0-10.3-3.8-19.3-11.1-26.7
		c-7.4-7.4-16.4-11.1-26.7-11.1H304z"/>
</g>
</svg>
