<?xml version="1.0" encoding="utf-8"?>
<!-- Generator: Adobe Illustrator 22.1.0, SVG Export Plug-In . SVG Version: 6.00 Build 0)  -->
<svg version="1.1" id="Layer_1" xmlns="http://www.w3.org/2000/svg" xmlns:xlink="http://www.w3.org/1999/xlink" x="0px" y="0px"
	 viewBox="0 0 700 500" style="enable-background:new 0 0 700 500;" xml:space="preserve">
<style type="text/css">
	.st0{fill:#FF8800;}
</style>
<g>
	<path class="st0" d="M697.1,210.8c-9.5-54.6-38-106.9-80.8-144.9c-42.8-35.6-99.8-57-154.4-59.4c-14.3,0-30.9,0-45.1,0
		c-11.9,0-26.1,0-38,0c-33.3,0-64.2,4.8-92.7,14.3c-40.4,14.3-76,42.8-109.3,85.5c-30.9,40.4-66.5,66.5-109.3,83.2
		c-16.6,7.1-30.9,16.6-42.8,23.8C10.5,222.7,1,236.9,1,253.6c-2.4,11.9,0,23.8,2.4,40.4c9.5,54.6,35.6,99.8,78.4,137.8
		c38,33.3,83.2,54.6,133.1,59.4c19,2.4,40.4,2.4,59.4,2.4c16.6,0,35.6,0,52.3,0h2.4c21.4,0,35.6-16.6,38-35.6
		c2.4-21.4-11.9-38-33.3-40.4c-4.8,0-11.9,0-16.6,0c-9.5,0-21.4,0-30.9,0c-19,0-38,0-57-2.4c-38-4.8-71.3-16.6-97.4-38
		c-26.1-21.4-42.8-52.3-52.3-87.9c-2.4-7.1-2.4-11.9-2.4-11.9c0-2.4,4.8-4.8,9.5-7.1c64.2-26.1,116.4-68.9,161.6-125.9
		c23.8-33.3,59.4-49.9,102.2-54.6c26.1-2.4,52.3-2.4,78.4-2.4c7.1,0,14.3,0,21.4,0c30.9,0,59.4,7.1,85.5,21.4
		c64.2,38,92.7,92.7,85.5,161.6c-4.8,33.3-14.3,61.8-33.3,85.5c-19,21.4-45.1,40.4-76,52.3c-2.4,0-2.4,0-4.8,2.4
		c-2.4,0-7.1,2.4-9.5,2.4c0-2.4,0-4.8,0-4.8c0-2.4,0-4.8,0-7.1c0-68.9,0-140.2,0-223.3c0-7.1,0-16.6-2.4-23.8
		c-2.4-19-19-33.3-35.6-33.3c-11.9,0-23.8,2.4-30.9,9.5c-7.1,7.1-11.9,16.6-11.9,28.5c0,35.6,0,73.7,0,106.9c0,14.3,0,28.5,0,42.8
		c0,42.8,0,87.9,0,130.7c0,2.4,0,2.4,0,4.8c0,7.1,0,11.9,0,19c0,16.6,11.9,26.1,28.5,28.5c19,2.4,40.4,0,54.6-2.4
		c61.8-11.9,118.8-45.1,154.4-97.4C692.4,339.1,706.7,274.9,697.1,210.8z"/>
	<circle class="st0" cx="324.1" cy="190.5" r="38"/>
</g>
</svg>
