<?xml version="1.0" encoding="utf-8"?>
<!-- Generator: Adobe Illustrator 22.1.0, SVG Export Plug-In . SVG Version: 6.00 Build 0)  -->
<svg version="1.1" id="Layer_1" xmlns="http://www.w3.org/2000/svg" xmlns:xlink="http://www.w3.org/1999/xlink" x="0px" y="0px"
	 viewBox="0 0 1000 700" style="enable-background:new 0 0 1000 700;" xml:space="preserve">
<style type="text/css">
	.st0{fill:#FFC107;}
	.st1{fill:none;stroke:#535461;stroke-miterlimit:10;}
	.st2{fill:none;stroke:#535461;stroke-width:2;stroke-miterlimit:10;}
	.st3{opacity:0.25;enable-background:new    ;}
	.st4{fill:#3F3D56;}
	.st5{opacity:0.1;enable-background:new    ;}
	.st6{opacity:0.4;fill:#FFFFFF;enable-background:new    ;}
	.st7{opacity:0.5;}
	.st8{fill:url(#SVGID_1_);}
	.st9{fill:#3A384D;}
	.st10{fill:#BEC7DE;}
	.st11{fill:#BE7C5E;}
	.st12{fill:#7FAFF2;}
	.st13{fill:#723647;}
	.st14{fill:#252A62;}
	.st15{fill:#F3AD55;}
	.st16{fill:#FBDCA3;}
	.st17{fill:#383F4D;}
</style>
<path class="st0" d="M27.9,485.1c0,0-89.6,54.1,75.5,137.2c0,0,36.4-67.6-3.9-122.5c-16.1-22.2-46.3-28.9-70.3-15.4L27.9,485.1z"/>
<path class="st1" d="M28.9,483.8c0,0,76.6,58.6,74.5,138.3"/>
<path class="st2" d="M107.6,625.3c0,0-28.1-95.3,5.3-165.4c13.9-29.4,18.6-62.5,12.2-94.4c-3.1-15.1-7.5-30-13.4-44.3"/>
<path class="st0" d="M132.3,276.9c0,11.7-21.1,45.4-21.1,45.4S90,288.5,90,276.9c-0.2-11.7,9-21.3,20.7-21.7
	c11.7-0.2,21.3,9,21.7,20.7C132.4,276.2,132.4,276.5,132.3,276.9z"/>
<path class="st0" d="M167.3,341.6c-6.3,9.8-42.5,26.8-42.5,26.8s0.7-39.9,7-49.8c6.5-9.7,19.6-12.4,29.3-5.9
	C170.6,319.1,173.4,331.9,167.3,341.6z"/>
<path class="st0" d="M165.8,452.1c-10.4,5.3-50.2,1.7-50.2,1.7s20.7-34.2,31.2-39.4c10.5-5.1,23.1-0.8,28.3,9.7
	C180,434.3,175.9,446.8,165.8,452.1z"/>
<path class="st0" d="M145.8,535.5c-9.4,7-49.2,10.1-49.2,10.1s14.6-37.1,24-44.1c9.5-6.7,22.8-4.5,29.5,5
	C156.7,515.7,154.8,528.5,145.8,535.5z"/>
<path class="st0" d="M80.4,370.5c8.4,8.2,47.4,16.6,47.4,16.6s-9.5-38.7-17.9-46.9s-21.8-8-29.9,0.4C71.9,349.1,72,362.4,80.4,370.5
	L80.4,370.5L80.4,370.5z"/>
<path class="st0" d="M58.3,468.4c10.4,5.3,50.2,1.7,50.2,1.7s-20.7-34.2-31.2-39.4c-10.3-5.4-23.1-1.5-28.5,8.7
	c-5.4,10.3-1.5,23.1,8.7,28.5C57.7,468.1,58.1,468.3,58.3,468.4z"/>
<path class="st0" d="M49.8,566.3c9.4,7,49.2,10.1,49.2,10.1s-14.6-37.1-24-44.1c-9.5-6.7-22.8-4.5-29.5,5
	C39,546.6,40.8,559.4,49.8,566.3L49.8,566.3z"/>
<path class="st3" d="M132.3,276.9c0,11.7-21.1,45.4-21.1,45.4S90,288.5,90,276.9c-0.2-11.7,9-21.3,20.7-21.7
	c11.7-0.2,21.3,9,21.7,20.7C132.4,276.2,132.4,276.5,132.3,276.9z"/>
<path class="st3" d="M167.3,341.6c-6.3,9.8-42.5,26.8-42.5,26.8s0.7-39.9,7-49.8c6.5-9.7,19.6-12.4,29.3-5.9
	C170.6,319.1,173.4,331.9,167.3,341.6z"/>
<path class="st3" d="M165.8,452.1c-10.4,5.3-50.2,1.7-50.2,1.7s20.7-34.2,31.2-39.4c10.5-5.1,23.1-0.8,28.3,9.7
	C180,434.3,175.9,446.8,165.8,452.1z"/>
<path class="st3" d="M145.8,535.5c-9.4,7-49.2,10.1-49.2,10.1s14.6-37.1,24-44.1c9.5-6.7,22.8-4.5,29.5,5
	C156.7,515.7,154.8,528.5,145.8,535.5z"/>
<path class="st3" d="M80.4,370.5c8.4,8.2,47.4,16.6,47.4,16.6s-9.5-38.7-17.9-46.9s-21.8-8-29.9,0.4C71.9,349.1,72,362.4,80.4,370.5
	L80.4,370.5L80.4,370.5z"/>
<path class="st3" d="M58.3,468.4c10.4,5.3,50.2,1.7,50.2,1.7s-20.7-34.2-31.2-39.4c-10.3-5.4-23.1-1.5-28.5,8.7
	c-5.4,10.3-1.5,23.1,8.7,28.5C57.7,468.1,58.1,468.3,58.3,468.4z"/>
<path class="st3" d="M49.8,566.3c9.4,7,49.2,10.1,49.2,10.1s-14.6-37.1-24-44.1c-9.5-6.7-22.8-4.5-29.5,5
	C39,546.6,40.8,559.4,49.8,566.3L49.8,566.3z"/>
<path class="st2" d="M913.2,622.4c0,0-33.3-113,6.3-196.1c16.5-34.9,22-74,14.4-111.9c-3.7-18-8.9-35.5-15.9-52.6"/>
<path class="st0" d="M942.5,209.4c0,13.9-25,53.9-25,53.9s-25-40.1-25-53.9c0-13.9,11.3-25,25-25
	C931.2,184.4,942.5,195.5,942.5,209.4z"/>
<path class="st0" d="M983.9,286.1c-7.5,11.7-50.3,31.7-50.3,31.7s0.8-47.3,8.3-59c7.5-11.7,23.1-14.9,34.6-7.5
	C988,258.8,991.4,274.4,983.9,286.1z"/>
<path class="st0" d="M982.1,417c-12.3,6.3-59.5,2-59.5,2s24.5-40.5,37-46.7c12.3-6.3,27.4-1.3,33.7,11.1
	C999.4,395.8,994.5,410.9,982.1,417L982.1,417z"/>
<path class="st0" d="M958.5,515.8c-11.1,8.3-58.3,11.9-58.3,11.9s17.3-44,28.4-52.3c11.1-8.1,26.9-5.6,35,5.5
	C971.7,492.1,969.4,507.6,958.5,515.8z"/>
<path class="st0" d="M880.9,320.4c10,9.7,56.2,19.7,56.2,19.7s-11.3-45.9-21.2-55.6c-9.8-9.8-25.7-9.8-35.4,0
	c-9.8,9.8-9.8,25.7,0,35.4C880.7,320,880.8,320.2,880.9,320.4z"/>
<path class="st0" d="M854.7,436.3c12.3,6.3,59.5,2,59.5,2s-24.5-40.5-37-46.7c-12.2-6.4-27.4-1.8-33.8,10.4
	c-6.4,12.2-1.8,27.4,10.4,33.8C854.2,436,854.4,436.1,854.7,436.3z"/>
<path class="st0" d="M844.6,552.5c11.1,8.3,58.3,11.9,58.3,11.9s-17.3-44-28.4-52.3c-11.1-8.1-26.9-5.6-35,5.5
	C831.4,528.8,833.7,544.3,844.6,552.5z"/>
<path class="st2" d="M780.6,624.5c0,0-14.8-50.3,2.8-87.3c7.5-15.5,9.8-32.9,6.4-49.9c-1.6-8-4-15.9-7.1-23.4"/>
<path class="st0" d="M793.8,440.6c0,6.2-11.2,24-11.2,24s-11.2-17.9-11.2-24c0-6.2,5-11.2,11.2-11.2S793.8,434.4,793.8,440.6z"/>
<path class="st0" d="M812.1,474.7c-3.4,5.2-22.5,14.1-22.5,14.1s0.3-21.1,3.7-26.3c3.6-5,10.5-6.2,15.5-2.6
	C813.8,463.3,815.1,469.7,812.1,474.7z"/>
<path class="st0" d="M811.4,533c-5.5,2.8-26.5,0.9-26.5,0.9s11-18,16.4-20.7c5.6-2.5,12.3,0,14.8,5.5
	C818.4,524,816.5,530.2,811.4,533L811.4,533z"/>
<path class="st0" d="M800.8,577c-5,3.7-26,5.3-26,5.3s7.7-19.6,12.7-23.2c4.8-3.9,11.8-3.3,15.7,1.5c3.9,4.8,3.3,11.8-1.5,15.7
	C801.5,576.6,801.2,576.8,800.8,577z"/>
<path class="st0" d="M766.3,490c4.5,4.3,25,8.7,25,8.7s-5-20.4-9.4-24.8c-4.2-4.5-11.3-4.8-15.7-0.5s-4.8,11.3-0.5,15.7
	C765.7,489.6,766.1,489.8,766.3,490L766.3,490z"/>
<path class="st0" d="M754.7,541.6c5.5,2.8,26.5,0.9,26.5,0.9s-11-18-16.4-20.7c-5.6-2.5-12.3,0-14.8,5.5
	C747.5,532.6,749.6,538.8,754.7,541.6L754.7,541.6z"/>
<path class="st0" d="M750.1,593.4c5,3.7,26,5.3,26,5.3s-7.7-19.7-12.7-23.2c-5.1-3.5-12.1-2.2-15.5,2.9
	C744.7,583.2,745.6,589.7,750.1,593.4z"/>
<g>
	<path class="st4" d="M1000,656.4v6c0,12.7-8.8,23-19.6,23c-0.6,0-1.2,0-1.8-0.1c-40-4.5-79.9-12.8-120.1-11.4
		c-74.1,2.7-148.8,38.3-220.5,16.3c-20.2-6.2-40.2-17-61-14.7c-18.7,2.1-35.3,14.5-53.4,20.3c-55,17.8-111-27.1-168-25.3
		c-37.6,1.2-73.6,22.7-111.1,20.3c-21.8-1.4-42.5-10.7-63.7-16.5C127.9,660,73.5,668,19.1,673c-7.9,0.7-14.8-6.2-15.4-15.5
		c0-0.4,0-0.8,0-1.2v-5.1c0-9.3,6.4-16.8,14.3-16.8l962.5-0.9C991.3,633.4,1000,643.7,1000,656.4z"/>
	<path class="st5" d="M1000,656.4v6c0,12.7-8.8,23-19.6,23c-0.6,0-1.2,0-1.8-0.1c-40-4.5-79.9-12.8-120.1-11.4
		c-74.1,2.7-148.8,38.3-220.5,16.3c-20.2-6.2-40.2-17-61-14.7c-18.7,2.1-35.3,14.5-53.4,20.3c-55,17.8-111-27.1-168-25.3
		c-37.6,1.2-73.6,22.7-111.1,20.3c-21.8-1.4-42.5-10.7-63.7-16.5C127.9,660,73.5,668,19.1,673c-7.9,0.7-14.8-6.2-15.4-15.5
		c0-0.4,0-0.8,0-1.2v-5.1c0-9.3,6.4-16.8,14.3-16.8l962.5-0.9C991.3,633.4,1000,643.7,1000,656.4z"/>
	<path class="st4" d="M1000,645.4v6c0,0.8,0,1.7-0.1,2.5c-1.1,12.5-10.6,21.6-21.3,20.5c-40-4.5-79.9-12.8-120.1-11.4
		c-74.1,2.7-148.8,38.3-220.5,16.3c-20.2-6.2-40.2-17-61-14.7c-18.7,2.1-35.3,14.4-53.4,20.3c-55,17.7-111-27.2-168-25.4
		c-37.6,1.2-73.6,22.7-111.1,20.3c-21.8-1.4-42.5-10.7-63.7-16.5c-52.8-14.4-107.3-6.3-161.7-1.3c-7.3,0.7-13.9-5.3-15.2-13.8
		c-0.1-1-0.2-1.9-0.2-2.9v-5.2c0-9.3,6.4-16.8,14.3-16.8l241.2-0.2l492.9-0.5l228.4-0.2C991.3,622.4,1000,632.7,1000,645.4z"/>
</g>
<g>
	<rect x="303.1" y="216.2" class="st6" width="33.4" height="43.2"/>
	<rect x="376" y="216.2" class="st6" width="33.4" height="43.2"/>
	<rect x="303.1" y="285.3" class="st6" width="33.4" height="43.2"/>
	<rect x="303.1" y="354.5" class="st6" width="33.4" height="43.2"/>
	<rect x="303.1" y="423.7" class="st6" width="33.4" height="43.2"/>
	<g class="st7">
		
			<linearGradient id="SVGID_1_" gradientUnits="userSpaceOnUse" x1="361.3782" y1="417.3942" x2="740.4642" y2="417.3942" gradientTransform="matrix(0.9872 0.1595 -0.1595 0.9872 -73.9828 -158.9191)">
			<stop  offset="0" style="stop-color:#808080;stop-opacity:0.25"/>
			<stop  offset="0.54" style="stop-color:#808080;stop-opacity:0.12"/>
			<stop  offset="1" style="stop-color:#808080;stop-opacity:0.1"/>
		</linearGradient>
		<path class="st8" d="M547.8,427.4l-17.9-84.6h1.8l-0.2-1.4h0.5l-9.2-45.8c0,0,0.5-47.8,2.8-66.2c1.7-13.5,4.3-30.6,2.4-45.2
			c0.2-0.4,0.5-0.8,0.7-1.2c0.8-1.6,1.3-3.2,1.4-4.9c0.7-4.1,0.1-8.2-1.6-11.9l18.6-11.7c0.4,0,0.8,0.1,1.2,0.1
			c0-0.1-0.1-0.5-0.4-0.8c18.1,1,34.7-10,41.1-27c1.7,2.5,3.7,4.7,6,6.5c5,3.7,13,4.6,17.2-0.1c1.6-1.9,2.5-4.1,3-6.5
			c0.2-1.1,0.4-2.2,0.6-3.2c2.4-12.6-2.9-25.7-9.5-36.8c-8.4-13.8-19.6-26.3-33.6-34.2c-14.2-7.8-31.5-10.7-46.8-5.4
			s-30.7,19.5-32.1,35.6c-0.7,8.3,0.2,12-1.4,20.2c-0.8,4.1,1,11.9,1,16.3c-0.1,0.8-0.2,1.7-0.2,2.5c-0.2,4.9,1.7,9.6,3.1,14.4
			c-20.2,1-73.3,5-88.6,20.7c-19.1,19.3-65.8,26.3-65.8,26.3l-77.9,15.7l-27.1,11.5l0.4,1.2l-0.6,0.2c0,0,1,3.6,2.4,8.3
			c-6,5.5-10.1,13-11.3,21c-1.6,8.4-0.7,19.2,4.6,32.9c0,0,26.8,49.2,28.7,69.2l33.9,67.6c-2.9,5.8-31.9,64.4-36.9,97.2
			c-0.4,2.4-0.7,4.7-0.8,7.1c0,0-0.2,1.7-0.6,4.6c-2,12.1-8.3,42-23.7,56l0,0l0,0l0.2,0.1l0,0l0,0l-0.5,0.5l0.4,0.2
			c-4.6,8.8,2,20.8,2,20.8l7.6,33.9l8.5,1.3l8.9-3.6l4.9,9.5c0,0,38.4,6.1,49.4,5.8c10.9-0.4-9.2-18.9-16.3-24.4c-4-3-7-15.5-9-26.1
			c1.1-0.8,1.9-1.8,2.8-2.9c0,0-4.7-24.7,9.5-58.6c6-14.4,12.5-31,18-45.3c3,19.2,6,39,8.3,52.5c3.4,19.6,2.9,31.5,1.9,38.2
			c-0.2,2.4-0.7,4.7-1.7,6.8c0,0.1,0.1,0.1,0.1,0.2c-0.1,0.1-0.1,0.4-0.2,0.5c0.1,0.1,0.1,0.2,0.2,0.4c-7.7,8.9,0.4,23.3,0.4,23.3
			l7.6,33.7l8.5,1.3l8.9-3.6l4.9,9.5c0,0,38.4,6.1,49.4,5.8c10.9-0.4-9.2-18.9-16.3-24.4c-5.5-4.3-9.4-27.3-10.8-37.2
			c1.1-0.1,1.6-0.1,1.6-0.1l-0.1-0.7h0.2l-4.8-28.3c-8.3-7.1-7.1-108.5-7.1-108.5s-4.3,10.6-4.4,9.7c0.4-1.7,1.9-6.5,5.5-16.8
			c2.2-5.9,3.7-12,4.7-18.1c4-24.1-3.4-38.8-3.4-38.8c0.5-4.8-4.6-23.7-10.7-43.7l19-36.9c2.6,1,5.5,1.2,8.3,0.7l14.3-25.9
			c0,0,29.7-17.7,38.2-16.3c7.9,1.2,32.7-4.2,42.2-14.5c0.7-0.7,1.3-1.6,1.9-2.4c7.7-11.8,4.6,61.6,4.6,61.6l-4.1,25.5l-0.2,1.4
			l12.3,0.2l28.9,99.2c0,0,1.8,33.6,34.7,41.1C594.5,489.6,547.8,427.4,547.8,427.4z M350.3,312.8c-1.8-5.5-3.4-10.2-4.6-13.8
			l6.1-4.8c0,0,0.7,0.6,2,1.7L350.3,312.8z"/>
	</g>
	<path class="st9" d="M380.1,583.4c0,0,4.2,35.3,11.2,40.6c7,5.4,26.5,23.4,16,23.8c-10.7,0.4-48.2-5.6-48.2-5.6l-4.8-9.2l-8.6,3.5
		l-8.3-1.3l-7.4-33c0,0-10.4-18.6,4.2-26.2C348.8,568.3,380.1,583.4,380.1,583.4z"/>
	<path class="st5" d="M344.9,294.1c0,0,29.1,86.6,28,97.8c0,0,10.7,21.5-1.1,54.9c-11.8,33.4-1.2,7.6-1.2,7.6s-1.1,98.7,7,105.7
		l4.7,27.6c0,0-45.4,5.4-53-8.5c0,0,5.9-10.3,0.1-44.4s-16.9-109.3-16.9-109.3l-30.1-171.5L344.9,294.1z"/>
	<path class="st10" d="M345,293.5c0,0,29.1,86.6,28,97.8c0,0,10.7,21.5-1.1,54.9c-11.8,33.4-1.2,7.6-1.2,7.6s-1.1,98.7,7,105.7
		l4.7,27.6c0,0-45.4,5.4-53-8.5c0,0,5.9-10.3,0.1-44.4s-16.9-109.4-16.9-109.4L282.3,253L345,293.5z"/>
	<path class="st5" d="M289.8,257.5l29.5,168.1c0,0,11.2,75.3,16.9,109.4c5.8,34.1-0.1,44.4-0.1,44.4c2.3,4.1,7.6,6.5,14.2,7.9
		c-9.2-1.1-17.5-3.6-20.4-8.9c0,0,5.9-10.3,0.1-44.4s-16.9-109.4-16.9-109.4l-30-171.6L289.8,257.5z"/>
	<path class="st9" d="M289.3,572.3c0,0,4.2,35.3,11.2,40.6c7,5.4,26.5,23.4,16,23.8c-10.6,0.4-48.2-5.6-48.2-5.6l-4.8-9.2l-8.6,3.6
		l-8.3-1.3l-7.4-33c0,0-10.4-18.6,4.2-26.2C258,557.4,289.3,572.3,289.3,572.3z"/>
	<path class="st5" d="M344.9,294.1c0,0,29.1,86.6,28,97.8c0,0,10.7,21.5-1.1,54.9c-11.8,33.4-1.2,7.6-1.2,7.6s-1.1,98.7,7,105.7
		l4.7,27.6c0,0-45.4,5.4-53-8.5c0,0,5.9-10.3,0.1-44.4s-16.9-109.3-16.9-109.3l-30.1-171.5L344.9,294.1z"/>
	<path class="st5" d="M252.7,217.8c0,0-32.4,12.4-15,57.7c0,0,26.2,48,28,67.4l33.1,66.1c0,0-35.3,69.9-36.9,101.4
		c0,0-4.7,42.3-23.8,59.7c0,0,41,34.8,56.2,14.8c0,0-4.6-24,9.2-57.2c13.8-33,30.3-77.7,30.3-77.7s39.6-26.8,13.2-81.9l-29.7-122.7
		l-0.5-27.6l-22.7-7.9L252.7,217.8z"/>
	<path class="st5" d="M251.2,218.3c0,0-32.4,12.4-15,57.7c0,0,26.2,48,28,67.4l33.1,66.1c0,0-35.3,69.9-36.9,101.4
		c0,0-4.7,42.3-23.8,59.7c0,0,41,34.8,56.2,14.8c0,0-4.6-24,9.2-57.2c13.8-33,30.3-77.7,30.3-77.7s39.6-26.8,13.2-81.9L316,245.7
		l-0.5-27.6l-22.7-7.9L251.2,218.3z"/>
	<path class="st10" d="M251.4,217.6c0,0-32.4,12.5-15,57.7c0,0,19.2,35.3,25.8,57.5c2.9,9.6,6.6,18.9,11.2,27.7l24.1,48.2
		c0,0-35.3,69.9-36.9,101.4c0,0-4.7,42.3-23.8,59.7c0,0,41,34.8,56.2,14.8c0,0-4.6-24,9.2-57.2c13.8-33.1,30.3-77.7,30.3-77.7
		s39.6-26.8,13.2-81.9L316.1,245l-0.5-27.6l-22.7-7.9L251.4,217.6z"/>
	<path class="st5" d="M251.4,217.6l41.6-8.2l5.4,1.9l-38.7,7.6c0,0-32.4,12.4-15,57.7c0,0,19.2,35.3,25.8,57.5
		c2.9,9.6,6.6,18.9,11.2,27.7l24.1,48.2c0,0-35.3,69.9-36.9,101.4c0,0-4.7,42.3-23.8,59.7c0,0,17.7,15,34.1,19.7
		c-18.1-0.4-42.4-21-42.4-21c19.1-17.4,23.8-59.7,23.8-59.7c1.6-31.6,36.9-101.4,36.9-101.4l-24.1-48.2c-4.6-8.9-8.3-18.3-11.2-27.7
		c-6.6-22.2-25.8-57.5-25.8-57.5C218.9,230,251.4,217.6,251.4,217.6z"/>
	<path class="st11" d="M384.8,305.5L359,355.7c0,0,7.6,66.9-6.8,68.8s-8.6-73.4-8.6-73.4l13.9-64.1L384.8,305.5z"/>
	<path class="st11" d="M525.7,338.2l18.4,87.1c0,0,45.3,61,13.2,53.7c-32.1-7.3-33.7-40.1-33.7-40.1l-30.9-106.1L525.7,338.2z"/>
	<path class="st11" d="M544.1,158.9l-45.6,28.7L482.2,144c0,0,37.7,2.5,42.2-11.5C528.7,118.3,544.1,158.9,544.1,158.9z"/>
	<polygon class="st11" points="520.6,177 517.8,164.5 472.8,167.2 454.7,239.8 488.4,241 507.3,211.6 517.6,182.9 	"/>
	<path class="st5" d="M505.1,163.9l3.7-20.9c0,0-83.1,1.1-101.7,19.9c-18.6,18.9-64.1,25.7-64.1,25.7l-75.9,15.3l-26.5,11.3
		c0,0,7.4,28.1,10.7,30c3.2,1.9,39-27.6,39-27.6l13.6,3.6l-44.2,46.5l81.7,80.4l1.6-44.2l10.4-8.2c0,0,24.9,21,35.9,17.8l13.9-25.3
		c0,0,28.9-17.2,37.2-15.9c7.7,1.2,31.8-4.1,41.1-14.1c0.6-0.7,1.2-1.4,1.8-2.3c7.6-11.5,4.4,60.1,4.4,60.1l-4.2,26.2l45,1l-9-44.6
		c0,0,0.5-46.5,2.6-64.5c2.2-18,6.1-42.8-1.9-58.3l-16,14.9L476.7,235l10.4-38.6L505.1,163.9z"/>
	<path class="st12" d="M505.4,162.6l-4-21.5c0,0-75.4,1.6-94,20.4c-18.6,18.9-64.3,25.7-64.3,25.7l-75.9,15.3l-26.4,11.3
		c0,0,7.4,28.1,10.7,30c3.2,1.9,39-27.6,39-27.6l13.6,3.6l-44.3,46.5l81.7,80.4l1.6-44.3l10.4-8.2c0,0,24.9,21,35.9,17.8l14.1-25.2
		c0,0,28.7-17.2,37.1-15.9c7.7,1.2,31.8-4.1,41.1-14.2c0.6-0.7,1.2-1.4,1.8-2.3c7.6-11.5,4.4,60.1,4.4,60.1l-4.2,26.2l45,1l-9-44.6
		c0,0,0.5-46.6,2.6-64.5c2.2-18,6.1-42.8-1.9-58.3l-15.9,15l-27.6,44.3l10.4-38.6L505.4,162.6z"/>
	<path class="st5" d="M410.1,189.9c0,0-45,38-49.7,58.4"/>
	<path class="st5" d="M459.3,222.6c0,0-34.6,26.2-40.7,42.9"/>
	<path class="st5" d="M358.3,262c0,0-3.2,15.7-3.8,24.1"/>
	<path class="st5" d="M341.8,298.2c0,0-51.8-46.5-59.1-45.5"/>
	<path class="st5" d="M524.8,133.3c4.2-13.6,18.5,23.2,19.7,26.3c-1.3-0.1-2.6-0.2-4.1-0.5c-10.9-1.8-20.7-7.9-26.9-17.1
		C519.1,140.2,523.5,137.5,524.8,133.3z"/>
	<circle class="st11" cx="546.3" cy="118.4" r="40.5"/>
	<path class="st5" d="M579.2,124.2c3.1,5.3,6.1,10.9,10.9,14.5c4.8,3.6,12.6,4.4,16.7-0.1c1.4-1.8,2.5-4,2.9-6.2
		c3-12.7-2.3-25.9-9-37.2c-8.2-13.5-19.1-25.7-32.8-33.4c-13.7-7.7-30.7-10.4-45.6-5.3c-14.9,5.2-27.1,18.7-28.5,34.5
		c-0.7,8,1.3,16.2-0.4,24.1c-0.8,4.1-2.8,8-2.9,12.3c-0.4,7.8,4.9,15,4.4,22.8c-0.2,4.8-2.8,9.1-4.2,13.7c-3.7,11-1.7,23.1-2.5,34.7
		c-0.7,11.7-5.9,24.6-16.9,28.1c12.3,6.1,29.2-0.4,34.2-13.1c1.6-4,2-8.3,4.4-11.8c4-5.9,12-8.3,15.3-14.5s0.5-13.9-3.1-20.1
		c-3.6-6.1-8-12.3-8.2-19.3c0-7.1,4.4-13.3,11.2-15.9c3.4-1.2,7-1.2,10.6-1.7c8.8-1.1,17.2-4.3,24.5-9.4
		C569.8,114.8,572.3,112.7,579.2,124.2z"/>
	<path class="st13" d="M579.5,122.4c3.1,5.3,6.1,10.9,10.9,14.5c4.9,3.7,12.6,4.4,16.7-0.1c1.4-1.8,2.5-4,2.9-6.2
		c3-12.7-2.3-25.9-9-37.2c-8.2-13.5-19.1-25.7-32.8-33.4c-13.8-7.7-30.7-10.4-45.6-5.3c-14.9,5-29.9,19-31.2,34.7
		c-0.7,8,0.2,11.8-1.3,19.6c-0.8,4.1,1.2,12.4,1,16.6c-0.4,7.8,4.9,15,4.4,22.8c-0.2,4.8-2.8,9.1-4.2,13.7
		c-3.7,11-1.7,23.1-2.5,34.7c-0.7,11.7-5.9,24.6-16.9,28.1c12.3,6.1,29.2-0.4,34.2-13.1c1.6-4,2-8.3,4.4-11.8
		c4-5.9,12-8.3,15.3-14.5c3.2-6.2,0.5-13.9-3.1-20.1c-3.6-6.1-8-12.3-8.2-19.3c0-7.1,4.4-13.3,11.2-15.9c3.4-1.2,7-1.2,10.6-1.7
		c8.8-1.1,17.2-4.3,24.5-9.4C570,113,572.6,111.1,579.5,122.4z"/>
	<path class="st14" d="M512.7,148.5l-17.2-2.8c-1.3-0.2-2.3-1.4-2-2.8l0,0c0.2-1.3,1.4-2.3,2.8-2l17.2,2.8c1.3,0.2,2.3,1.4,2,2.8
		l0,0C515.2,147.9,514,148.8,512.7,148.5z"/>
	<path class="st15" d="M460.2,487.2c0.2,19.3,16.6,34.6,35.9,34.6h2.6c2.4,0,4.7,1,6.4,2.5c1.3,1.2,2.2,2.8,2.5,4.6
		c0.2,0.7,0.2,1.4,0.2,2.2v34.1c0,6.6,1.9,13,5.4,18.5c5.2,7.8,7.9,16.9,8,26.4l0,0c0,9.1,7.3,16.5,16.5,16.5c0.1,0,0.2,0,0.2,0
		c9-0.1,16.1-7.9,16.1-17.1V601l4.4,0.5v8.5c0,9.1,7.3,16.5,16.5,16.5c0.1,0,0.2,0,0.2,0c9-0.1,16.1-7.9,16.1-17.1v-4.3
		c4.4,1.9,29.9,1.9,37,0l1.9-0.1v4.9c0,9.1,7.3,16.5,16.5,16.6c0.1,0,0.2,0,0.4,0c9-0.1,16.1-7.9,16.1-17.1v-6.8l1.4-0.1v7.8
		c0,9.1,7.4,16.5,16.6,16.5c0.1,0,0.1,0,0.2,0c8.3-0.2,15-6.5,16.1-14.7c0.1-0.7,0.1-1.6,0.1-2.3v-35.7c0-12.3-4.1-24.1-11.7-33.9
		c-2.6-3.5-2.8-8.4-0.2-12c8.4-12.3,20.8-33,20.4-47.7c0.1-4-1.3-7.8-4-10.8c-0.1-0.2-0.4-0.4-0.5-0.5c-12-12.6-33.3-2.6-31.5,14.7
		c0.6,5.8,0.2,11.7-1.2,17.4c-0.8,3.2-1.9,6.4-3.4,9.2c-2.9,6.1-9.4,9.7-16.1,9c-2.3-0.2-4.4-0.4-6.7-0.4H574
		c-8.3,0-15.7-5.3-18.4-13.2c-0.7-2-1.1-4.1-1.1-6.2v-53.8c0-5.8-4.7-10.4-10.4-10.4c-0.1,0-0.2,0-0.4,0c-2.8,0.1-5.4,1.3-7.2,3.4
		c-1.9,2-2.9,4.8-2.9,7.6c0,3-2.5,5.5-5.5,5.5l0,0h-32.7c-19.5,0-35.2,15.7-35.2,35.2C460.2,486.9,460.2,487.1,460.2,487.2
		L460.2,487.2z"/>
	<path class="st16" d="M665.7,614.3c1.9,7.3,8.6,12.5,16.2,12.4c8.3-0.2,15-6.5,16.1-14.7C687.9,609.3,674.1,607.3,665.7,614.3z"/>
	<path class="st16" d="M631.3,614.3c1.9,7.3,8.6,12.5,16.2,12.4c8.2-0.4,15-6.5,16-14.7C653.6,609.3,639.8,607.3,631.3,614.3z"/>
	<path class="st16" d="M559.4,614.3c1.9,7.3,8.6,12.5,16.2,12.4c8.3-0.2,15-6.5,16.1-14.7C581.6,609.3,568,607.3,559.4,614.3z"/>
	<path class="st16" d="M522.1,614.3c1.9,7.4,8.6,12.5,16.2,12.4c8.2-0.4,15-6.5,16-14.7C544.3,609.3,530.5,607.3,522.1,614.3z"/>
	<path class="st16" d="M669.3,501c11.7-4.7,25.8-13.2,37.1-20.7c0.1-4-1.3-7.8-4-10.8c-0.1-0.2-0.4-0.4-0.5-0.5
		c-12-12.6-33.3-2.6-31.5,14.7C671.1,489.5,670.8,495.4,669.3,501z"/>
	<path class="st16" d="M655.3,519.1c0,0-32.1,40.4-84.4-0.1"/>
	<path class="st16" d="M554.4,444.1c0,0-19.5,25.5,0,56.8"/>
	<path class="st16" d="M508,530.8c0,0,17.2,21.3,0.2,38.2"/>
	<path class="st5" d="M506.6,526.4c1.2,1.2,0.8,2.4,1.2,4.1l55.6-14.5c-3-2.3-6.7-5-7.9-8.6C548.9,512.3,535.6,521.1,506.6,526.4z"
		/>
	<path class="st17" d="M505.1,524.5c1.3,1.2,2.2,2.8,2.5,4.6l54.3-14.2c-3-2.3-5.3-5.5-6.5-9.1C548.9,510.9,534.2,519.2,505.1,524.5
		z"/>
	<path class="st5" d="M553.4,508.7c0,0-16.9,12.7-45.4,16.7"/>
	<path class="st15" d="M553.4,507.2c0,0-16.9,12.7-45.4,16.7"/>
	<path class="st5" d="M511,508.4c0,0-28.5,9-35.9-19.5L511,508.4z"/>
	<path class="st16" d="M511,506.9c0,0-28.5,9-35.9-19.5L511,506.9z"/>
	<ellipse class="st17" cx="460.2" cy="483.8" rx="3" ry="5.3"/>
	<path class="st5" d="M686.9,591.5l-6-47.9C680.9,543.6,698.8,572,686.9,591.5"/>
	<path class="st16" d="M679.4,543.6c0,0,17.9,28.5,6,47.9L679.4,543.6z"/>
</g>
</svg>
