<?xml version="1.0" encoding="utf-8"?>
<!-- Generator: Adobe Illustrator 23.0.3, SVG Export Plug-In . SVG Version: 6.00 Build 0)  -->
<svg version="1.1" id="Layer_1" xmlns="http://www.w3.org/2000/svg" xmlns:xlink="http://www.w3.org/1999/xlink" x="0px" y="0px"
	 viewBox="0 0 1000 700" style="enable-background:new 0 0 1000 700;" xml:space="preserve">
<style type="text/css">
	.st0{opacity:0.1;fill:#FFC107;enable-background:new    ;}
	.st1{fill:#3F3D56;}
	.st2{fill:#FFC107;}
	.st3{opacity:0.1;enable-background:new    ;}
	.st4{fill:#444053;}
	.st5{fill:#FFFFFF;}
	.st6{opacity:0.3;}
	.st7{fill:none;stroke:#444053;stroke-width:3;stroke-miterlimit:10;}
</style>
<g>
	
		<ellipse transform="matrix(0.7071 -0.7071 0.7071 0.7071 -213.3543 815.962)" class="st0" cx="878.3" cy="665.5" rx="18.6" ry="45.1"/>
	<ellipse class="st1" cx="881.5" cy="655.4" rx="10" ry="13"/>
	<ellipse class="st1" cx="881.5" cy="639.5" rx="10" ry="13"/>
	<ellipse class="st1" cx="881.5" cy="623.5" rx="10" ry="13"/>
	<ellipse class="st1" cx="881.5" cy="607.6" rx="10" ry="13"/>
	<ellipse class="st1" cx="881.5" cy="591.6" rx="10" ry="13"/>
	<ellipse class="st1" cx="881.5" cy="575.7" rx="10" ry="13"/>
	<ellipse class="st1" cx="881.5" cy="559.7" rx="10" ry="13"/>
	<path class="st2" d="M918.8,450.6c1.4-1.7,2.6-3.6,3.7-5.5l-26.2-4.3l28.3,0.2c5.5-11.9,5.8-25.6,0.9-37.8l-38,19.7l35-25.8
		c-13.2-22.8-42.4-30.7-65.2-17.5c-22.8,13.2-30.7,42.4-17.5,65.2c1.1,2,2.4,3.9,3.8,5.7c-2.1,2.7-3.9,5.6-5.4,8.7l34,17.6
		l-36.2-12.2c-5.2,15.3-2.3,32.1,7.7,44.8c-16.3,20.7-12.7,50.7,8,67s50.7,12.7,67-8c13.6-17.3,13.6-41.7,0-59
		C932.4,492.3,932.4,467.9,918.8,450.6L918.8,450.6z"/>
	<path class="st3" d="M833.5,480.1c0,10.7,3.6,21.1,10.2,29.5c-16.3,20.7-12.7,50.7,8,67c20.7,16.3,50.7,12.7,67-8
		c13.6-17.3,13.6-41.7,0-59C925.2,501.5,833.5,474.8,833.5,480.1z"/>
	<polygon class="st4" points="857.6,0 857.6,668.7 631,637.1 355.5,693.3 353.3,693.8 134.1,633.4 134.1,52 361.7,0 610.6,52 
		620.1,50 	"/>
	<polygon class="st5" points="819.6,36.5 819.6,634.8 616.8,606.6 370.3,656.9 368.3,657.3 172.2,603.2 172.2,83 375.8,36.5 
		598.5,83 607,81.3 	"/>
	<polygon class="st3" points="631,637.1 355.5,693.3 361.7,0 610.6,52 620.1,50 	"/>
	<g class="st6">
		<polyline class="st7" points="603.5,128.2 603.6,322.7 684.4,322.7 684.4,242.9 822.8,242.9 839.1,222 		"/>
		<polyline class="st7" points="153.6,189.9 454.1,189.9 472.7,181.6 480.1,181.6 480.1,369.2 610.1,369.2 615.7,385.9 615.7,470.4 
			716,470.4 716,574.9 		"/>
		<line class="st7" x1="519.8" y1="574.9" x2="519.8" y2="369.2"/>
		<line class="st7" x1="839.1" y1="519.8" x2="519.8" y2="519.8"/>
		<line class="st7" x1="759.1" y1="128.2" x2="759.1" y2="574.9"/>
		<line class="st7" x1="152.7" y1="480.3" x2="839.1" y2="480.3"/>
		<line class="st7" x1="236.2" y1="574.9" x2="236.2" y2="128.2"/>
		<line class="st7" x1="395.8" y1="128.2" x2="395.8" y2="574.9"/>
		<line class="st7" x1="153.6" y1="241" x2="684.4" y2="242.9"/>
		<line class="st7" x1="308.1" y1="129" x2="308.1" y2="574.9"/>
		<polyline class="st7" points="152.7,344.4 395.8,344.4 519.8,480.3 		"/>
		<line class="st7" x1="546.6" y1="128.2" x2="546.6" y2="369.2"/>
		<line class="st7" x1="519.8" y1="412.3" x2="839.1" y2="412.3"/>
	</g>
	<polygon class="st2" points="615.2,410.5 521.4,410.5 521.4,369.6 610.1,369.2 615.7,385 	"/>
	<path class="st2" d="M568.8,198.8c-28.4,0-51.3,23-51.3,51.3c0,28.4,51.3,120.5,51.3,120.5s51.3-92.1,51.3-120.5
		C620.1,221.7,597.1,198.8,568.8,198.8z M568.8,272c-12.5,0-22.6-10.1-22.6-22.6c0-12.5,10.1-22.6,22.6-22.6
		c12.5,0,22.6,10.1,22.6,22.6C591.4,261.9,581.3,272,568.8,272L568.8,272z"/>
	<path class="st3" d="M568.8,198.8c-28.4,0-51.3,23-51.3,51.3c0,28.4,51.3,120.5,51.3,120.5s51.3-92.1,51.3-120.5
		C620.1,221.7,597.1,198.8,568.8,198.8z M568.8,272c-12.5,0-22.6-10.1-22.6-22.6c0-12.5,10.1-22.6,22.6-22.6
		c12.5,0,22.6,10.1,22.6,22.6C591.4,261.9,581.3,272,568.8,272L568.8,272z"/>
	<path class="st2" d="M568.8,206.2c-28.4,0-51.3,23-51.3,51.3c0,28.4,51.3,120.5,51.3,120.5s51.3-92.1,51.3-120.5
		C620.1,229.2,597.1,206.2,568.8,206.2z M568.8,279.4c-12.5,0-22.6-10.1-22.6-22.6c0-12.5,10.1-22.6,22.6-22.6
		c12.5,0,22.6,10.1,22.6,22.6C591.4,269.3,581.3,279.4,568.8,279.4L568.8,279.4z"/>
	
		<ellipse transform="matrix(0.9184 -0.3955 0.3955 0.9184 -224.8744 271.6495)" class="st0" cx="546.3" cy="681.2" rx="31.1" ry="12.8"/>
	<ellipse class="st1" cx="546" cy="676.1" rx="6.9" ry="9"/>
	<ellipse class="st1" cx="546" cy="665.1" rx="6.9" ry="9"/>
	<ellipse class="st1" cx="546" cy="654.1" rx="6.9" ry="9"/>
	<ellipse class="st1" cx="546" cy="643.1" rx="6.9" ry="9"/>
	<ellipse class="st1" cx="546" cy="632.1" rx="6.9" ry="9"/>
	<ellipse class="st1" cx="546" cy="621.1" rx="6.9" ry="9"/>
	<ellipse class="st1" cx="546" cy="610.2" rx="6.9" ry="9"/>
	<path class="st2" d="M520.2,534.9c-0.9-1.2-1.8-2.4-2.6-3.7l18.1-3l-19.5,0.1c-3.8-8.2-4-17.7-0.6-26.1l26.2,13.5l-24.1-17.8
		c9.1-15.7,29.2-21.1,45-12c15.7,9.1,21.1,29.2,12,45c-0.8,1.4-1.7,2.7-2.6,3.9c1.4,1.9,2.7,3.9,3.7,6l-23.4,12.2l25-8.4
		c3.6,10.5,1.6,22.2-5.3,30.9c11.2,14.3,8.8,35-5.5,46.2c-14.3,11.2-35,8.8-46.2-5.5c-9.4-11.9-9.4-28.8,0-40.7
		C510.9,563.7,510.9,546.9,520.2,534.9L520.2,534.9z"/>
	<path class="st3" d="M579,555.3c0,7.4-2.5,14.6-7,20.3c11.2,14.3,8.8,35-5.5,46.2c-14.3,11.2-35,8.8-46.2-5.5
		c-9.4-11.9-9.4-28.8,0-40.7C515.8,570,579,551.6,579,555.3z"/>
	
		<ellipse transform="matrix(0.7071 -0.7071 0.7071 0.7071 -422.2368 270.8068)" class="st0" cx="115.8" cy="645.1" rx="18.6" ry="45.1"/>
	<ellipse class="st1" cx="119" cy="635" rx="10" ry="13"/>
	<ellipse class="st1" cx="119" cy="619" rx="10" ry="13"/>
	<ellipse class="st1" cx="119" cy="603.1" rx="10" ry="13"/>
	<ellipse class="st1" cx="119" cy="587.1" rx="10" ry="13"/>
	<ellipse class="st1" cx="119" cy="571.2" rx="10" ry="13"/>
	<ellipse class="st1" cx="119" cy="555.3" rx="10" ry="13"/>
	<ellipse class="st1" cx="119" cy="539.3" rx="10" ry="13"/>
	<path class="st2" d="M156.3,430.2c1.4-1.7,2.6-3.6,3.7-5.5l-26.2-4.3l28.3,0.2c5.5-11.9,5.8-25.6,0.9-37.8l-38,19.7l35-25.8
		c-13.2-22.8-42.4-30.7-65.2-17.5s-30.7,42.4-17.5,65.2c1.1,2,2.4,3.9,3.8,5.7c-2.1,2.7-3.9,5.6-5.4,8.7l34,17.6l-36.2-12.2
		c-5.2,15.3-2.3,32.1,7.7,44.8c-16.3,20.7-12.7,50.7,8,67c20.7,16.3,50.7,12.7,67-8c13.6-17.3,13.6-41.7,0-59
		C169.9,471.9,169.9,447.5,156.3,430.2L156.3,430.2z"/>
	<path class="st3" d="M71,459.7c0,10.7,3.6,21.1,10.2,29.5c-16.3,20.7-12.7,50.7,8,67s50.7,12.7,67-8c13.6-17.3,13.6-41.7,0-59
		C162.7,481.1,71,454.3,71,459.7z"/>
</g>
</svg>
