<?xml version="1.0" encoding="utf-8"?>
<!-- Generator: Adobe Illustrator 22.1.0, SVG Export Plug-In . SVG Version: 6.00 Build 0)  -->
<svg version="1.1" id="Layer_1" xmlns="http://www.w3.org/2000/svg" xmlns:xlink="http://www.w3.org/1999/xlink" x="0px" y="0px"
	 viewBox="0 0 151 26" style="enable-background:new 0 0 151 26;" xml:space="preserve">
<g>
	<path d="M26.1,2.5C24.3,1,21.9,0.1,19.6,0c-0.6,0-1.3,0-1.9,0c-0.5,0-1.1,0-1.6,0c-1.4,0-2.7,0.2-3.9,0.6C10.5,1.2,9,2.4,7.6,4.2
		C6.3,5.9,4.8,7,3,7.7C2.3,8,1.7,8.4,1.2,8.7c-0.6,0.4-1,1-1,1.7c-0.1,0.5,0,1,0.1,1.7c0.4,2.3,1.5,4.2,3.3,5.8
		c1.6,1.4,3.5,2.3,5.6,2.5c0.8,0.1,1.7,0.1,2.5,0.1c0.7,0,1.5,0,2.2,0l0.1,0c0.9,0,1.5-0.7,1.6-1.5c0.1-0.9-0.5-1.6-1.4-1.7
		c-0.2,0-0.5,0-0.7,0c-0.4,0-0.9,0-1.3,0c-0.8,0-1.6,0-2.4-0.1c-1.6-0.2-3-0.7-4.1-1.6c-1.1-0.9-1.8-2.2-2.2-3.7
		c-0.1-0.3-0.1-0.5-0.1-0.5c0-0.1,0.2-0.2,0.4-0.3c2.7-1.1,4.9-2.9,6.8-5.3c1-1.4,2.5-2.1,4.3-2.3c1.1-0.1,2.2-0.1,3.3-0.1
		c0.3,0,0.6,0,0.9,0c1.3,0,2.5,0.3,3.6,0.9c2.7,1.6,3.9,3.9,3.6,6.8c-0.2,1.4-0.6,2.6-1.4,3.6c-0.8,0.9-1.9,1.7-3.2,2.2
		c-0.1,0-0.1,0-0.2,0.1c-0.1,0-0.3,0.1-0.4,0.1c0-0.1,0-0.2,0-0.2c0-0.1,0-0.2,0-0.3c0-2.9,0-5.9,0-9.4c0-0.3,0-0.7-0.1-1
		c-0.1-0.8-0.8-1.4-1.5-1.4c-0.5,0-1,0.1-1.3,0.4c-0.3,0.3-0.5,0.7-0.5,1.2c0,1.5,0,3.1,0,4.5c0,0.6,0,1.2,0,1.8c0,1.8,0,3.7,0,5.5
		c0,0.1,0,0.1,0,0.2c0,0.3,0,0.5,0,0.8c0,0.7,0.5,1.1,1.2,1.2c0.8,0.1,1.7,0,2.3-0.1c2.6-0.5,5-1.9,6.5-4.1c1.6-2.2,2.2-4.9,1.8-7.6
		C29.1,6.3,27.9,4.1,26.1,2.5z"/>
	<path d="M44.1,7.6c-0.6-0.7-1.4-1.2-2.3-1.5c-0.9-0.4-1.9-0.5-3-0.5c-1.1,0-2.1,0.2-3,0.5c-0.9,0.4-1.7,0.9-2.3,1.5
		c-0.6,0.7-1.1,1.5-1.5,2.4c-0.3,0.9-0.5,2-0.5,3.1c0,1.1,0.2,2.1,0.5,3c0.3,0.9,0.8,1.7,1.5,2.4c0.7,0.7,1.4,1.2,2.3,1.5
		c0.9,0.4,1.9,0.5,3,0.5c1.1,0,2.1-0.2,3-0.5c0.9-0.4,1.7-0.9,2.3-1.5c0.6-0.7,1.1-1.5,1.5-2.4c0.3-0.9,0.5-1.9,0.5-3
		c0-1.1-0.2-2.1-0.5-3C45.3,9,44.8,8.2,44.1,7.6z M41.4,16.5c-0.7,0.8-1.6,1.3-2.7,1.3c-0.7,0-1.4-0.2-1.9-0.6
		c-0.5-0.4-1-0.9-1.3-1.7c-0.3-0.7-0.4-1.6-0.4-2.5c0-1,0.1-1.8,0.4-2.6c0.3-0.7,0.7-1.3,1.3-1.7c0.6-0.4,1.2-0.6,1.9-0.6
		c1.1,0,2,0.4,2.7,1.3c0.7,0.8,1,2,1,3.5C42.4,14.5,42.1,15.7,41.4,16.5z"/>
	<path d="M60.8,5.5c-0.5,0-0.9,0.2-1.2,0.5c-0.3,0.4-0.5,0.8-0.5,1.5V8c-0.7-0.9-1.4-1.5-2.1-1.9c-0.8-0.4-1.7-0.6-2.7-0.6
		c-0.9,0-1.7,0.2-2.4,0.5c-0.7,0.3-1.4,0.8-1.9,1.4c-0.6,0.6-1,1.4-1.3,2.3c-0.3,0.9-0.5,1.9-0.5,3c0,1.5,0.2,2.8,0.7,3.9
		c0.5,1.1,1.2,2,2.1,2.7c0.9,0.6,2,0.9,3.2,0.9c1,0,1.9-0.2,2.7-0.6c0.7-0.4,1.4-1,2-1.8c0,1.2,0,2.1-0.1,2.6c0,0.5-0.2,1.1-0.4,1.5
		c-0.2,0.5-0.6,0.9-1.1,1.1c-0.5,0.3-1.3,0.4-2.2,0.4c-0.5,0-0.9,0-1.2-0.1c-0.4-0.1-0.7-0.2-0.9-0.4c-0.3-0.2-0.5-0.4-0.7-0.6
		c-0.2-0.2-0.4-0.5-0.6-0.7c-0.4-0.5-0.9-0.7-1.4-0.7c-0.4,0-0.8,0.1-1.1,0.4c-0.3,0.3-0.5,0.7-0.5,1.1c0,0.6,0.3,1.2,0.8,1.7
		c0.5,0.6,1.3,1,2.3,1.4c1,0.4,2.1,0.5,3.4,0.5c1.4,0,2.6-0.1,3.5-0.4c0.9-0.3,1.7-0.7,2.3-1.3c0.6-0.6,1-1.3,1.3-2.2
		c0.3-0.9,0.4-1.9,0.4-3.2V8.2c0-0.9-0.1-1.5-0.4-2C62,5.7,61.6,5.5,60.8,5.5z M58.5,15.5c-0.3,0.7-0.8,1.2-1.3,1.5
		s-1.1,0.5-1.7,0.5c-1,0-1.9-0.4-2.5-1.2c-0.7-0.8-1-1.9-1-3.4c0-1.5,0.3-2.6,1-3.4c0.6-0.8,1.5-1.2,2.5-1.2c1.1,0,2,0.4,2.6,1.3
		c0.7,0.8,1,2,1,3.5C59,14,58.9,14.8,58.5,15.5z"/>
	<path d="M78.5,0.3H69c-0.6,0-1,0.1-1.4,0.3C67.2,0.8,67,1,66.8,1.4c-0.2,0.4-0.3,0.8-0.3,1.4v15.3c0,0.8,0.2,1.4,0.6,1.8
		c0.4,0.4,0.9,0.6,1.5,0.6c0.6,0,1.1-0.2,1.4-0.6c0.4-0.4,0.6-1,0.6-1.8v-6.5h6.6c0.6,0,1.1-0.1,1.4-0.4c0.3-0.3,0.5-0.6,0.5-1.1
		c0-0.5-0.2-0.8-0.5-1.1c-0.3-0.3-0.8-0.4-1.4-0.4h-6.6V3.4h7.9c0.6,0,1.1-0.1,1.4-0.4c0.3-0.3,0.5-0.7,0.5-1.1
		c0-0.5-0.2-0.8-0.5-1.1C79.6,0.5,79.1,0.3,78.5,0.3z"/>
	<path d="M84.6,5.5c-0.5,0-1,0.2-1.3,0.6c-0.3,0.4-0.5,0.9-0.5,1.7v10.6c0,0.7,0.2,1.3,0.5,1.7c0.3,0.4,0.8,0.6,1.3,0.6
		c0.5,0,1-0.2,1.3-0.6c0.4-0.4,0.5-0.9,0.5-1.7V7.6c0-0.7-0.2-1.2-0.5-1.5C85.6,5.7,85.1,5.5,84.6,5.5z"/>
	<path d="M102.7,7.9c-0.4-0.8-1-1.4-1.7-1.8c-0.8-0.4-1.6-0.6-2.6-0.6c-1,0-1.9,0.2-2.7,0.6c-0.8,0.4-1.5,1-2.1,1.9V7.5
		c0-0.4-0.1-0.8-0.2-1.1c-0.2-0.3-0.4-0.5-0.6-0.7c-0.3-0.2-0.6-0.2-0.9-0.2c-0.5,0-1,0.2-1.3,0.5c-0.3,0.3-0.5,0.9-0.5,1.6v10.7
		c0,0.7,0.2,1.3,0.5,1.7c0.3,0.4,0.8,0.6,1.3,0.6c0.6,0,1-0.2,1.3-0.6c0.3-0.4,0.5-0.9,0.5-1.7v-4.6c0-1.5,0.1-2.5,0.3-3.1
		c0.3-0.7,0.6-1.2,1.2-1.6c0.5-0.4,1.1-0.6,1.8-0.6c1,0,1.7,0.3,2,1c0.3,0.6,0.5,1.6,0.5,2.8v6.2c0,0.7,0.2,1.3,0.5,1.7
		c0.3,0.4,0.8,0.6,1.3,0.6c0.5,0,1-0.2,1.3-0.6c0.3-0.4,0.5-0.9,0.5-1.7v-6.9c0-0.8,0-1.5-0.1-2S103,8.4,102.7,7.9z"/>
	<path d="M118.9,0c-0.6,0-1,0.2-1.3,0.6c-0.3,0.4-0.5,1-0.5,1.7v5.5c-0.7-0.8-1.4-1.3-2.1-1.7c-0.7-0.4-1.6-0.5-2.7-0.5
		c-1.8,0-3.3,0.6-4.5,1.9c-1.1,1.3-1.7,3.1-1.7,5.4c0,1.1,0.1,2.1,0.4,3c0.3,0.9,0.7,1.8,1.3,2.4c0.6,0.7,1.2,1.2,2,1.6
		c0.8,0.4,1.6,0.6,2.5,0.6c0.7,0,1.3-0.1,1.8-0.3c0.6-0.2,1.1-0.5,1.6-0.8c0.5-0.4,1-0.8,1.5-1.4v0.4c0,0.7,0.2,1.2,0.5,1.6
		c0.3,0.4,0.7,0.5,1.3,0.5c0.5,0,0.9-0.2,1.3-0.5c0.3-0.4,0.5-0.9,0.5-1.6V2.1c0-0.7-0.2-1.2-0.5-1.6C119.8,0.2,119.4,0,118.9,0z
		 M116.4,15.6c-0.3,0.7-0.7,1.2-1.3,1.6c-0.5,0.3-1.1,0.5-1.8,0.5c-0.6,0-1.2-0.2-1.8-0.5c-0.5-0.4-1-0.9-1.3-1.6
		c-0.3-0.7-0.5-1.6-0.5-2.6c0-0.9,0.1-1.8,0.4-2.5c0.3-0.7,0.7-1.3,1.2-1.7c0.5-0.4,1.1-0.6,1.8-0.6c0.6,0,1.2,0.2,1.8,0.6
		c0.5,0.4,1,0.9,1.3,1.6c0.3,0.7,0.5,1.6,0.5,2.5C116.9,14,116.7,14.9,116.4,15.6z"/>
	<path d="M136.9,13.5c0.5-0.3,0.8-0.9,0.8-1.8c0-1-0.3-2-0.8-3c-0.5-1-1.3-1.8-2.3-2.4c-1-0.6-2.3-0.9-3.7-0.9c-1.1,0-2.1,0.2-3,0.5
		c-0.9,0.4-1.7,0.9-2.3,1.5c-0.6,0.7-1.1,1.5-1.4,2.4s-0.5,1.9-0.5,3c0,2.3,0.7,4.2,2,5.5c1.3,1.4,3.2,2,5.5,2c1,0,2-0.1,2.8-0.4
		c0.8-0.3,1.5-0.6,2-1c0.5-0.4,0.9-0.8,1.2-1.3c0.3-0.4,0.4-0.8,0.4-1.2c0-0.4-0.1-0.7-0.4-0.9c-0.2-0.2-0.5-0.3-0.9-0.3
		c-0.4,0-0.6,0.1-0.8,0.2c-0.5,0.4-0.8,0.8-1.1,1c-0.3,0.3-0.6,0.5-0.9,0.7c-0.3,0.2-0.7,0.4-1.1,0.5c-0.4,0.1-0.8,0.2-1.2,0.2
		c-0.7,0-1.3-0.2-1.8-0.5c-0.5-0.3-1-0.8-1.3-1.4c-0.3-0.6-0.5-1.4-0.5-2.2h7.2C135.6,13.9,136.3,13.8,136.9,13.5z M127.4,11.8
		c0.1-1.2,0.5-2.2,1.1-2.8c0.6-0.6,1.3-1,2.3-1c1,0,1.7,0.3,2.3,0.9c0.6,0.6,0.9,1.6,1,2.8H127.4z"/>
	<path d="M12.2,7.7c0,0.9,0.7,1.6,1.7,1.6c0.8,0,1.5-0.7,1.5-1.6c0-0.9-0.7-1.6-1.6-1.5C12.8,6.1,12.2,6.8,12.2,7.7z"/>
	<path d="M84.6,0.3c-1.1,0-1.9,0.8-1.9,1.9c0,1.1,0.9,1.9,2.1,1.9c1,0,1.8-0.9,1.8-2C86.5,1.1,85.7,0.3,84.6,0.3z"/>
	<path d="M149.8,6.1c-0.7-0.4-1.5-0.6-2.3-0.6c-0.8,0-1.4,0.2-1.9,0.6c-0.5,0.4-0.9,1-1.4,1.7c0-0.8-0.2-1.3-0.4-1.7
		c-0.3-0.4-0.7-0.6-1.3-0.6c-1.2,0-1.8,0.8-1.8,2.5v10.3c0,0.7,0.2,1.3,0.5,1.7c0.3,0.4,0.8,0.6,1.3,0.6c0.5,0,1-0.2,1.3-0.6
		c0.4-0.4,0.5-0.9,0.5-1.7v-3.1c0-1.1,0-2.1,0.1-2.8c0.1-0.8,0.2-1.4,0.4-2c0.2-0.6,0.5-1,0.8-1.3c0.3-0.3,0.8-0.4,1.3-0.4
		c0.4,0,0.9,0.1,1.4,0.3c0.5,0.2,0.8,0.3,1,0.3c0.4,0,0.7-0.1,1-0.4c0.3-0.3,0.5-0.7,0.5-1.1C150.9,7,150.5,6.5,149.8,6.1z"/>
</g>
</svg>
