<?xml version="1.0" encoding="utf-8"?>
<!-- Generator: Adobe Illustrator 22.1.0, SVG Export Plug-In . SVG Version: 6.00 Build 0)  -->
<svg version="1.1" id="Layer_1" xmlns="http://www.w3.org/2000/svg" xmlns:xlink="http://www.w3.org/1999/xlink" x="0px" y="0px"
	 viewBox="0 0 147 26" style="enable-background:new 0 0 147 26;" xml:space="preserve">
<g>
	<path d="M26.2,2.5C24.4,1,22,0.1,19.6,0c-0.6,0-1.3,0-1.9,0c-0.5,0-1.1,0-1.6,0c-1.4,0-2.7,0.2-3.9,0.6c-1.7,0.6-3.2,1.8-4.7,3.6
		C6.3,6,4.8,7.1,3,7.8c-0.7,0.3-1.3,0.7-1.8,1c-0.6,0.4-1,1-1,1.7c-0.1,0.5,0,1,0.1,1.7c0.4,2.3,1.5,4.2,3.3,5.9
		c1.6,1.4,3.5,2.3,5.6,2.5c0.8,0.1,1.7,0.1,2.5,0.1c0.7,0,1.5,0,2.2,0H14c0.9,0,1.5-0.7,1.6-1.5c0.1-0.9-0.5-1.6-1.4-1.7
		c-0.2,0-0.5,0-0.7,0c-0.4,0-0.9,0-1.3,0c-0.8,0-1.6,0-2.4-0.1c-1.6-0.2-3-0.7-4.1-1.6c-1.1-0.9-1.9-2.3-2.3-3.8
		c-0.1-0.3-0.1-0.5-0.1-0.5c0-0.1,0.2-0.2,0.4-0.3c2.7-1.1,4.9-2.9,6.9-5.3c1-1.4,2.5-2.1,4.3-2.3c1.1-0.1,2.2-0.1,3.3-0.1
		c0.3,0,0.6,0,0.9,0c1.3,0,2.5,0.3,3.6,0.9c2.7,1.6,3.9,3.9,3.6,6.9c-0.2,1.4-0.6,2.6-1.4,3.6c-0.8,0.9-1.9,1.7-3.2,2.2
		c-0.1,0-0.1,0-0.2,0.1c-0.1,0-0.3,0.1-0.4,0.1c0-0.1,0-0.2,0-0.2c0-0.1,0-0.2,0-0.3c0-2.9,0-6,0-9.5c0-0.3,0-0.7-0.1-1
		c-0.1-0.8-0.8-1.4-1.5-1.4c-0.5,0-1,0.1-1.3,0.4c-0.3,0.3-0.5,0.7-0.5,1.2c0,1.5,0,3.1,0,4.5c0,0.6,0,1.2,0,1.8c0,1.8,0,3.7,0,5.5
		c0,0.1,0,0.1,0,0.2c0,0.3,0,0.5,0,0.8c0,0.7,0.5,1.1,1.2,1.2c0.8,0.1,1.7,0,2.3-0.1c2.6-0.5,5-1.9,6.6-4.1c1.6-2.2,2.2-4.9,1.8-7.7
		C29.2,6.4,28,4.1,26.2,2.5z"/>
	<path d="M43.7,8.2c-0.6-0.7-1.4-1.2-2.2-1.5c-0.9-0.4-1.8-0.5-2.9-0.5c-1.1,0-2,0.2-2.9,0.5c-0.9,0.4-1.6,0.9-2.2,1.5
		c-0.6,0.7-1.1,1.5-1.5,2.3c-0.3,0.9-0.5,1.9-0.5,3s0.2,2,0.5,2.9c0.3,0.9,0.8,1.6,1.5,2.3c0.7,0.7,1.4,1.2,2.2,1.5
		c0.9,0.4,1.8,0.5,2.9,0.5c1.1,0,2-0.2,2.9-0.5c0.9-0.4,1.6-0.9,2.2-1.5c0.6-0.7,1.1-1.5,1.5-2.3c0.3-0.9,0.5-1.8,0.5-2.9
		s-0.2-2-0.5-2.9C44.8,9.6,44.3,8.8,43.7,8.2z M41,16.7c-0.7,0.8-1.5,1.3-2.6,1.3c-0.7,0-1.4-0.2-1.8-0.6c-0.4-0.4-1-0.9-1.3-1.6
		c-0.3-0.7-0.4-1.5-0.4-2.4c0-1,0.1-1.7,0.4-2.5c0.3-0.7,0.7-1.3,1.3-1.6c0.6-0.4,1.2-0.6,1.8-0.6c1.1,0,1.9,0.4,2.6,1.3
		c0.7,0.8,1,1.9,1,3.4C42,14.8,41.7,15.9,41,16.7z"/>
	<path d="M59.8,6.2c-0.5,0-0.9,0.2-1.2,0.5c-0.3,0.4-0.5,0.8-0.5,1.5v0.5c-0.7-0.9-1.4-1.5-2-1.8c-0.8-0.4-1.6-0.6-2.6-0.6
		c-0.9,0-1.6,0.2-2.3,0.5c-0.7,0.3-1.4,0.6-1.8,1.2c-0.6,0.6-1,1.4-1.3,2.2c-0.3,0.9-0.5,1.8-0.5,2.9c0,1.5,0.2,2.7,0.7,3.8
		s1.2,1.9,2,2.6c0.9,0.6,1.9,0.9,3.1,0.9c1,0,1.8-0.2,2.6-0.6c0.7-0.4,1.4-1,1.9-1.7c0,1.2,0,2-0.1,2.5c0,0.5-0.2,1.1-0.4,1.5
		c-0.2,0.5-0.6,0.9-1.1,1.1c-0.5,0.3-1.3,0.4-2.1,0.4c-0.5,0-0.9,0-1.2-0.1c-0.4-0.1-0.7-0.2-0.9-0.4c-0.3-0.2-0.5-0.4-0.7-0.6
		c-0.2-0.2-0.4-0.5-0.6-0.7c-0.4-0.5-0.9-0.7-1.4-0.7c-0.4,0-0.8,0.1-1.1,0.4s-0.5,0.7-0.5,1.1c0,0.6,0.3,1.2,0.8,1.6
		c0.5,0.6,1.3,1,2.2,1.4c1,0.4,2,0.5,3.3,0.5c1.4,0,2.5-0.1,3.4-0.4c0.9-0.3,1.6-0.7,2.2-1.3c0.6-0.6,1-1.3,1.3-2.1
		c0.3-0.9,0.4-1.8,0.4-3.1V8.8c0-0.9-0.1-1.5-0.4-1.9C61,6.4,60.6,6.2,59.8,6.2z M57.6,15.7c-0.3,0.7-0.8,1.2-1.3,1.5
		c-0.5,0.3-1.1,0.5-1.6,0.5c-1,0-1.8-0.4-2.4-1.2c-0.7-0.8-1-1.8-1-3.3s0.3-2.5,1-3.3c0.6-0.8,1.5-1.2,2.4-1.2
		c1.1,0,1.9,0.4,2.5,1.3c0.7,0.8,1,1.9,1,3.4C58.1,14.3,58,15.1,57.6,15.7z"/>
	<path d="M76.8,1.1h-9.2c-0.6,0-1,0.1-1.4,0.3c-0.4,0.2-0.6,0.4-0.8,0.8c-0.2,0.4-0.2,0.8-0.2,1.4v14.7c0,0.8,0.2,1.4,0.6,1.7
		c0.4,0.4,0.9,0.6,1.5,0.6s1.1-0.2,1.4-0.6c0.4-0.4,0.6-1,0.6-1.7v-6.3h6.4c0.6,0,1.1-0.1,1.4-0.4c0.3-0.3,0.5-0.6,0.5-1.1
		c0-0.5-0.2-0.8-0.5-1.1c-0.3-0.3-0.8-0.4-1.4-0.4h-6.4v-5h7.5c0.6,0,1.1-0.1,1.4-0.4c0.3-0.3,0.5-0.7,0.5-1.1
		c0-0.5-0.2-0.8-0.5-1.1C77.9,1.3,77.4,1.1,76.8,1.1z"/>
	<path d="M82.7,6.2c-0.5,0-1,0.2-1.3,0.6c-0.3,0.4-0.5,0.9-0.5,1.6v10.3c0,0.7,0.2,1.3,0.5,1.6c0.3,0.4,0.8,0.6,1.3,0.6
		c0.5,0,1-0.2,1.3-0.6c0.4-0.4,0.5-0.9,0.5-1.6V8.2c0-0.7-0.2-1.2-0.5-1.5C83.7,6.4,83.2,6.2,82.7,6.2z"/>
	<path d="M100.1,8.5c-0.4-0.8-1-1.4-1.6-1.7C97.7,6.4,97,6.2,96,6.2c-1,0-1.8,0.2-2.6,0.6c-0.8,0.4-1.5,1-2,1.8V8.1
		c0-0.4-0.1-0.8-0.2-1.1c-0.2-0.3-0.4-0.5-0.6-0.7c-0.3-0.2-0.6-0.2-0.9-0.2c-0.5,0-1,0.2-1.3,0.5C88.2,6.9,88,7.5,88,8.1v10.3
		c0,0.7,0.2,1.3,0.5,1.6c0.3,0.4,0.8,0.6,1.3,0.6c0.6,0,1-0.2,1.3-0.6c0.3-0.4,0.5-0.9,0.5-1.6v-4.4c0-1.5,0.1-2.4,0.3-3
		c0.3-0.7,0.6-1.2,1.2-1.5C93.4,9.2,93.9,9,94.6,9c1,0,1.6,0.3,1.9,1c0.3,0.6,0.5,1.5,0.5,2.7v6c0,0.7,0.2,1.3,0.5,1.6
		c0.3,0.4,0.8,0.6,1.3,0.6s1-0.2,1.3-0.6c0.3-0.4,0.5-0.9,0.5-1.6V12c0-0.8,0-1.5-0.1-1.9C100.3,9.6,100.4,9,100.1,8.5z"/>
	<path d="M115.8,0.9c-0.6,0-1,0.2-1.3,0.6c-0.3,0.4-0.5,1-0.5,1.6v5.3c-0.7-0.8-1.4-1.3-2-1.6c-0.6-0.3-1.5-0.5-2.6-0.5
		c-1.7,0-3.2,0.6-4.4,1.8c-1.1,1.3-1.6,3-1.6,5.2c0,1.1,0.1,2,0.4,2.9c0.3,0.9,0.7,1.7,1.3,2.3c0.6,0.7,1.2,1.2,1.9,1.5
		c0.7,0.3,1.5,0.6,2.4,0.6c0.7,0,1.3-0.1,1.7-0.3c0.6-0.2,1.1-0.5,1.5-0.8c0.5-0.4,1-0.8,1.5-1.4v0.4c0,0.7,0.2,1.2,0.5,1.5
		c0.3,0.4,0.7,0.5,1.3,0.5c0.5,0,0.9-0.2,1.3-0.5c0.3-0.4,0.5-0.9,0.5-1.5V2.9c0-0.7-0.2-1.2-0.5-1.5C116.7,1,116.3,0.9,115.8,0.9z
		 M113.4,15.8c-0.3,0.7-0.7,1.2-1.3,1.5c-0.5,0.3-1.1,0.5-1.7,0.5s-1.2-0.2-1.7-0.5c-0.5-0.4-1-0.9-1.3-1.5
		c-0.3-0.6-0.5-1.5-0.5-2.5c0-0.9,0.1-1.7,0.4-2.4c0.3-0.7,0.7-1.3,1.2-1.6c0.5-0.4,1.1-0.6,1.7-0.6c0.6,0,1.2,0.2,1.7,0.6
		s1,0.9,1.3,1.5c0.3,0.6,0.5,1.5,0.5,2.4C113.9,14.3,113.7,15.2,113.4,15.8z"/>
	<path d="M133.1,13.8c0.5-0.3,0.8-0.9,0.8-1.7c0-1-0.3-1.9-0.8-2.9c-0.5-1-1.3-1.7-2.2-2.3s-2.2-0.9-3.6-0.9c-1.1,0-2,0.2-2.9,0.5
		c-0.9,0.4-1.6,0.9-2.2,1.5c-0.6,0.7-1.1,1.5-1.4,2.3c-0.3,0.8-0.5,1.8-0.5,2.9c0,2.2,0.7,4.1,1.9,5.3c1.3,1.4,3.1,1.9,5.3,1.9
		c1,0,1.9-0.1,2.7-0.4c0.8-0.3,1.5-0.6,1.9-1c0.5-0.4,0.9-0.8,1.2-1.3c0.3-0.4,0.4-0.8,0.4-1.2c0-0.4-0.1-0.7-0.4-0.9
		c-0.2-0.2-0.5-0.3-0.9-0.3s-0.6,0.1-0.8,0.2c-0.5,0.4-0.8,0.8-1.1,1c-0.3,0.3-0.6,0.5-0.9,0.7c-0.3,0.2-0.7,0.4-1.1,0.5
		c-0.4,0.1-0.8,0.2-1.2,0.2c-0.7,0-1.3-0.2-1.7-0.5c-0.4-0.3-1-0.8-1.3-1.4c-0.3-0.6-0.5-1.4-0.5-2.1h7
		C131.9,14.2,132.5,14.1,133.1,13.8z M123.9,12.3c0.1-1.2,0.5-2.1,1.1-2.7s1.3-1,2.2-1c0.9,0,1.6,0.3,2.2,0.9c0.6,0.6,0.9,1.5,1,2.7
		L123.9,12.3L123.9,12.3z"/>
	<path d="M82.7,1.1c-1.1,0-1.8,0.8-1.8,1.8s0.9,1.8,2,1.8c1,0,1.7-0.9,1.7-1.9C84.6,1.9,83.8,1.1,82.7,1.1z"/>
	<path d="M145.5,6.8c-0.7-0.4-1.5-0.6-2.2-0.6c-0.8,0-1.4,0.2-1.8,0.6c-0.5,0.4-0.9,1-1.4,1.6c0-0.8-0.2-1.3-0.4-1.6
		c-0.3-0.4-0.7-0.6-1.3-0.6c-1.2,0-1.7,0.8-1.7,2.4v10c0,0.7,0.2,1.3,0.5,1.6c0.3,0.4,0.8,0.6,1.3,0.6c0.5,0,1-0.2,1.3-0.6
		c0.4-0.4,0.5-0.9,0.5-1.6v-3c0-1.1,0-2,0.1-2.7c0.1-0.8,0.2-1.4,0.4-1.9c0.2-0.5,0.5-1,0.8-1.3s0.8-0.4,1.3-0.4
		c0.4,0,0.9,0.1,1.4,0.3s0.8,0.3,1,0.3c0.4,0,0.7-0.1,1-0.4c0.3-0.3,0.5-0.7,0.5-1.1C146.5,7.6,146.2,7.1,145.5,6.8z"/>
	<circle cx="13.5" cy="7.8" r="1.6"/>
</g>
</svg>
