<?xml version="1.0" encoding="utf-8"?>
<!-- Generator: Adobe Illustrator 22.1.0, SVG Export Plug-In . SVG Version: 6.00 Build 0)  -->
<svg version="1.1" id="Layer_1" xmlns="http://www.w3.org/2000/svg" xmlns:xlink="http://www.w3.org/1999/xlink" x="0px" y="0px"
	 viewBox="0 0 3240 648" style="enable-background:new 0 0 3240 648;" xml:space="preserve">
<style type="text/css">
	.st0{fill:#FFFFFF;}
</style>
<g>
	<path class="st0" d="M984.3,229c-13.7-14.1-30.2-25-49.5-32.6c-19.2-7.6-40.7-11.4-64.3-11.4c-23.2,0-44.5,3.8-63.7,11.3
		c-19.2,7.5-35.6,18.2-49.2,32.2c-13.5,13.9-23.9,30.7-31.2,50.3c-7.2,19.6-10.9,41.3-10.9,64.9c0,23.4,3.6,44.8,10.7,64.2
		c7.1,19.3,17.6,36.1,31.4,50.3c13.8,14.2,30.2,25.1,49,32.7s40.1,11.4,63.7,11.4c23.8,0,45.2-3.8,64.3-11.3
		c19-7.5,35.4-18.3,49.2-32.4c13.7-14.1,24.2-31,31.4-50.6c7.2-19.6,10.9-41.1,10.9-64.3c0-23.4-3.6-44.9-10.7-64.3
		C1008.4,259.9,998,243.1,984.3,229z M927,417.6c-14,17.8-32.8,26.7-56.5,26.7c-15.6,0-29.2-4-40.7-12.1s-20.4-19.8-26.6-35
		c-6.2-15.2-9.3-33.1-9.3-53.5c0-20.6,3.1-38.6,9.4-54s15.2-27.1,26.9-35c11.6-7.9,25-11.9,40.3-11.9c23.6,0,42.4,8.9,56.5,26.6
		c14,17.7,21,42.5,21,74.3C948,375.1,941,399.7,927,417.6z"/>
	<path class="st0" d="M1337.3,185c-10.5,0-19.1,3.7-25.7,11.2c-6.7,7.4-10,17.9-10,31.4v10.6c-13.9-18.1-29-31.4-45.2-39.9
		c-16.2-8.5-35.3-12.7-57.4-12.7c-18.5,0-35.4,3.3-50.9,9.9c-15.4,6.6-29.1,16.3-40.9,29.3c-11.8,13-20.9,28.9-27.3,47.7
		c-6.4,18.9-9.6,40-9.6,63.5c0,31.4,5.2,59.2,15.7,83.2s25.5,42.7,45,56c19.5,13.3,42.3,20,68.5,20c21.7,0,40.4-4.4,56.2-13.2
		c15.7-8.8,29.6-21.5,41.6-38.3c-0.4,25.5-0.9,44.1-1.7,55.6s-3.4,22.3-7.9,32.4c-4.5,10.1-12.3,18-23.4,23.6
		c-11.1,5.6-26.8,8.4-47,8.4c-9.9,0-18.7-0.9-26.3-2.7c-7.6-1.8-14.1-4.6-19.6-8.3s-10.4-8.2-14.9-13.4c-4.5-5.2-8.8-10.4-13-15.6
		c-8.6-10.1-18.6-15.2-30-15.2c-9.1,0-17,3-23.4,9c-6.5,6-9.7,13.8-9.7,23.3c0,12.6,5.7,24.8,17.2,36.7
		c11.4,11.9,27.7,21.6,48.9,29.2c21.2,7.5,45.2,11.3,72,11.3c29.3,0,53.9-3,73.6-8.9c19.7-5.9,35.7-15,47.9-27.2
		c12.2-12.2,21.1-27.6,26.6-46.3c5.5-18.7,8.3-41,8.3-66.9V242.2c0-18.5-2.5-32.6-7.4-42.4C1362.3,189.9,1352.3,185,1337.3,185z
		 M1287.8,395.3c-7.2,14-16.6,24.5-28.2,31.4c-11.5,7-23.8,10.4-36.7,10.4c-21.9,0-39.8-8.1-53.6-24.3
		c-13.8-16.2-20.7-40.1-20.7-71.8c0-31.2,6.7-55.3,20.1-72.3c13.4-17,31.3-25.4,53.6-25.4c22.9,0,41.3,8.9,55.3,26.6
		c14,17.7,21,42.5,21,74.3C1298.7,364.3,1295.1,381.3,1287.8,395.3z"/>
	<path class="st0" d="M1739.6,85.1c-6.6-6-16.6-9-30.2-9h-200.1c-12,0-21.9,1.8-29.6,5.3c-7.7,3.5-13.4,9.1-17,16.9
		c-3.6,7.7-5.4,17.7-5.4,29.9v322.4c0,17.3,3.9,30.3,11.9,38.9c7.9,8.6,18.2,12.9,30.7,12.9c12.4,0,22.5-4.2,30.4-12.7
		c7.9-8.5,11.9-21.5,11.9-39V312.5H1682c12.8,0,22.4-2.9,28.9-8.6c6.5-5.7,9.7-13.4,9.7-23.2c0-9.7-3.2-17.5-9.6-23.3
		c-6.4-5.8-16.1-8.7-29-8.7h-139.8V141.6h167.2c13.5,0,23.6-3,30.2-9c6.6-6,9.9-14,9.9-23.9C1749.5,99,1746.2,91.1,1739.6,85.1z"/>
	<path class="st0" d="M1838.1,185c-11.4,0-20.7,3.9-27.9,11.7c-7.2,7.8-10.7,19.4-10.7,34.9v223.2c0,15.2,3.6,27,10.7,35.2
		c7.1,8.2,16.4,12.3,27.9,12.3c11.4,0,20.9-4,28.3-12c7.4-8,11.2-19.8,11.2-35.4V229.3c0-13.9-3.7-24.8-11.2-32.6
		C1859,188.9,1849.5,185,1838.1,185z"/>
	<path class="st0" d="M2221.7,236.5c-8-16.4-20.1-29.1-36.3-38c-16.2-8.9-34.6-13.4-55.2-13.4c-21.1,0-39.9,4.2-56.2,12.7
		s-31.3,21.8-45,39.9v-9.4c0-9.3-1.7-17.2-5-23.7c-3.3-6.5-7.8-11.3-13.3-14.6c-5.5-3.2-11.7-4.9-18.6-4.9c-11.2,0-20.1,3.7-26.6,11
		c-6.5,7.3-9.7,18.4-9.7,33.3v225.5c0,15.2,3.6,27,10.9,35.2c7.2,8.2,16.5,12.3,27.7,12.3c11.6,0,21.1-4,28.4-11.9
		c7.3-7.9,11-19.8,11-35.6v-97.8c0-31.8,1.9-53.5,5.7-65.2c5.3-14.5,13.7-25.9,25.2-34.2c11.4-8.3,24.1-12.4,38-12.4
		c21.3,0,35.6,6.8,42.7,20.4c7.1,13.6,10.7,33.3,10.7,59v130c0,15.2,3.6,27,10.9,35.2c7.2,8.2,16.7,12.3,28.3,12.3
		c11.4,0,20.7-4,27.9-12s10.7-19.8,10.7-35.4V309.6c0-17.1-0.8-31.2-2.3-42.3S2226.8,246,2221.7,236.5z"/>
	<path class="st0" d="M2562.4,69c-11.8,0-20.9,4.1-27.3,12.3c-6.4,8.2-9.6,20.3-9.6,36.3v115.2c-14.7-16-29.7-27.9-45.2-35.6
		c-15.4-7.7-34.4-11.6-56.9-11.6c-38.9,0-70.2,13.6-94,40.9s-35.7,65.3-35.7,114c0,23,3,44.5,9,64.3c6,19.8,14.8,37.1,26.4,51.7
		c11.6,14.7,25.4,26,41.3,33.9c15.9,7.9,33.2,11.9,51.9,11.9c14.1,0,27.1-2,39-5.9c11.9-3.9,23-9.6,33.2-17.1
		c10.2-7.5,20.5-17.3,31-29.3v7.7c0,14.3,3.5,25.3,10.5,33c7,7.7,15.8,11.6,26.4,11.6c10.9,0,19.7-3.7,26.6-11.2
		s10.3-18.6,10.3-33.4V113.6c0-14.7-3.2-25.8-9.6-33.3C2583.3,72.7,2574.2,69,2562.4,69z M2511.1,398.4
		c-6.8,14.8-15.8,25.7-27.1,32.9c-11.3,7.2-23.9,10.7-37.6,10.7c-13.5,0-26-3.8-37.4-11.3c-11.4-7.5-20.4-18.7-27-33.6
		s-9.9-32.9-9.9-54c0-20,3.1-37.6,9.3-52.7c6.2-15.1,14.9-26.8,26.1-34.9c11.2-8.1,24-12.1,38.3-12.1c13.7,0,26.3,4,37.9,11.9
		c11.5,7.9,20.7,19.3,27.4,34.3c6.8,15,10.1,32.8,10.1,53.6C2521.2,365.2,2517.8,383.6,2511.1,398.4z"/>
	<path class="st0" d="M2942.8,354.1c11.2-5.8,16.9-18.5,16.9-38.2c0-21.2-5.4-41.9-16.3-62.3s-27.2-37-49-49.9
		c-21.8-12.9-48-19.3-78.5-19.3c-23.4,0-44.8,3.8-64,11.3c-19.2,7.5-35.4,18.3-48.6,32.4c-13.1,14.1-23.1,31-30,50.7
		c-6.9,19.7-10.3,41.1-10.3,64.2c0,49,13.9,87.8,41.7,116.3c27.8,28.6,66.8,42.9,116.9,42.9c21.9,0,41.3-2.9,58.2-8.6
		c16.9-5.7,30.9-12.9,42-21.6c11.1-8.7,19.5-17.7,25-27.1s8.3-17.7,8.3-24.7c0-8-2.5-14.2-7.4-18.6c-5-4.4-11.4-6.6-19.4-6.6
		c-7.4,0-13.1,1.7-17.1,5.1c-9.7,9.1-17.6,16.4-23.7,21.7c-6.1,5.3-12.8,10.3-20,15c-7.2,4.7-14.7,8.1-22.4,10.3s-16.2,3.3-25.6,3.3
		c-13.9,0-26.6-3.4-38.2-10.3c-11.5-6.9-20.8-17-27.7-30.6c-7-13.5-10.5-29.2-10.7-46.9h152.6
		C2915.8,362.8,2931.6,359.9,2942.8,354.1z M2742.8,318.5c2.7-26.3,10.2-46.2,22.7-59.6c12.5-13.4,28.4-20.2,47.9-20.2
		c20.4,0,36.8,6.6,49.3,19.9c12.5,13.2,19.7,33.2,21.6,59.9H2742.8z"/>
	<path class="st0" d="M455.3,30.6c-27.3-0.5-54.6-0.3-81.9-0.7c-30.4-0.4-60.1,3.4-88.8,13.8c-44.4,16-78.3,45.4-106.9,82
		c-30,38.4-66.3,68.8-112.6,86.2c-14.9,5.6-28.6,14.1-41.9,23C10.4,243.4,3,255.1,1.3,270.6c-1.3,12.6-0.2,25,1.8,37.3
		c8.9,54,35.3,98.3,75.9,134.3c37.1,32.9,80.2,52.3,129.7,57.4c37.7,3.9,75.4,2.7,113.1,1.6c17.5-0.5,30-12.9,31-29.3
		c1-19-8.4-30.9-27.2-34.1c-5.1-0.9-10.4-1-15.6-1.1c-28.7-0.6-57.4,1.4-86.2-1.4c-78.9-7.7-135-55-154.9-131.2
		c-4.2-16-2.3-20.8,13-27.1c64.5-26.5,116.3-68.7,158.4-124c26.5-34.9,62.4-53.2,106.4-56.6c32.8-2.6,65.6-1.5,98.4-1.3
		c31.3,0.1,61.1,7.2,88.1,23.2c63.7,37.6,95.8,93.6,87.4,167.6c-7.9,69.9-48.2,117.1-114.5,141c-24.8,8.9-21.5,9.4-21.8-14.8
		c-1-73.8-0.6-147.6,0.5-221.4c0.1-7.8-0.3-15.7-1.3-23.5c-1.9-15-15-26.6-29.5-26.9c-21.1-0.5-34.5,11.8-34.7,33.5
		c-0.4,50.3-0.1,100.5-0.1,150.8c0,43.3,0,86.6,0,129.9c0,8.1-0.2,16.3,0.3,24.4c0.9,13.5,8.4,21.1,22,22.5
		c17.5,1.7,34.7-0.3,51.9-3.5c124.5-22.8,212.7-140.6,191-269.3C665.6,117.5,567.7,32.6,455.3,30.6z"/>
	<path class="st0" d="M263.5,205.3c0.1,19.3,15.5,33.8,35.6,33.5c17.2-0.3,31.2-15.7,31-34.3c-0.1-19-14.1-32.8-33.2-32.7
		C277.5,171.7,263.5,185.9,263.5,205.3z"/>
	<path class="st0" d="M1838.6,76.1c-23.6,0-40.7,17.3-40.6,40.8c0.1,23.5,18.8,41.1,43.3,40.7c20.9-0.3,37.9-19.2,37.8-41.8
		C1878.9,92.9,1861.9,76.1,1838.6,76.1z"/>
	<path class="st0" d="M3216.1,197.3c-15.4-8.2-31.3-12.3-47.7-12.3c-16.4,0-29.5,4.1-39.3,12.3c-9.8,8.2-19.4,20.3-28.7,36.3
		c-0.6-16-3.7-28.1-9.4-36.3c-5.7-8.2-15.1-12.3-28-12.3c-25.4,0-38,17.5-38,52.6v217.2c0,15.6,3.6,27.4,10.9,35.4
		c7.2,8,16.5,12,27.7,12c11.4,0,20.9-4,28.3-11.9c7.4-7.9,11.1-19.8,11.1-35.6v-65.2c0-23.4,0.8-43.3,2.3-59.6
		c1.5-16.3,4.3-30.3,8.3-42.2s9.6-20.7,16.9-26.7c7.2-6,16.6-9,28-9c8.4,0,18.1,1.8,29,5.3c10.9,3.5,17.9,5.3,20.7,5.3
		c7.6,0,14.7-3.1,21.3-9.3s9.9-14,9.9-23.6C3239.2,216.4,3231.5,205.5,3216.1,197.3z"/>
</g>
</svg>
