<?xml version="1.0" encoding="utf-8"?>
<!-- Generator: Adobe Illustrator 22.1.0, SVG Export Plug-In . SVG Version: 6.00 Build 0)  -->
<svg version="1.1" id="Layer_1" xmlns="http://www.w3.org/2000/svg" xmlns:xlink="http://www.w3.org/1999/xlink" x="0px" y="0px"
	 viewBox="0 0 1000 700" style="enable-background:new 0 0 1000 700;" xml:space="preserve">
<style type="text/css">
	.st0{fill:#F2F2F2;}
	.st1{fill:#FFC107;}
	.st2{fill:#3F3D56;}
	.st3{opacity:0.1;enable-background:new    ;}
	.st4{fill:#2F2E41;}
	.st5{fill:#A0616A;}
	.st6{fill:#D0CDE1;}
	.st7{opacity:0.5;fill:#915766;}
	.st8{fill:none;stroke:#915766;stroke-miterlimit:10;}
	.st9{fill:none;stroke:#915766;stroke-miterlimit:10;stroke-dasharray:4.8956,4.8956;}
	.st10{fill:none;stroke:#915766;stroke-miterlimit:10;stroke-dasharray:4.9512,4.9512;}
	.st11{fill:none;stroke:#915766;stroke-miterlimit:10;stroke-dasharray:4.7003,4.7003;}
	.st12{fill:none;stroke:#915766;stroke-miterlimit:10;stroke-dasharray:5.1353,5.1353;}
	.st13{fill:none;stroke:#915766;stroke-miterlimit:10;stroke-dasharray:4.8514,4.8514;}
	.st14{fill:none;stroke:#915766;stroke-miterlimit:10;stroke-dasharray:3.639,3.639;}
	.st15{fill:none;stroke:#915766;stroke-miterlimit:10;stroke-dasharray:5.1416,5.1416;}
	.st16{fill:none;stroke:#915766;stroke-miterlimit:10;stroke-dasharray:2.832,2.832;}
	.st17{fill:none;stroke:#915766;stroke-miterlimit:10;stroke-dasharray:4.9237,4.9237;}
	.st18{fill:none;stroke:#915766;stroke-miterlimit:10;stroke-dasharray:4.5425,4.5425;}
	.st19{fill:none;stroke:#915766;stroke-miterlimit:10;stroke-dasharray:4.8211,4.8211;}
	.st20{fill:none;stroke:#915766;stroke-miterlimit:10;stroke-dasharray:4.3411,4.3411;}
	.st21{fill:none;stroke:#915766;stroke-miterlimit:10;stroke-dasharray:4.9506,4.9506;}
</style>
<g>
	<circle class="st0" cx="413.7" cy="390.9" r="301.2"/>
	<path class="st1" d="M818.5,169.1l-31.4,37.3c-1.7,16-4.1,34-7.5,52.8l51.6-53.4l0.2,0.9c-2.9-14.4-7.4-27.4-13.2-38.4L818.5,169.1
		z"/>
	<path class="st1" d="M787.4,203.6l30.4-36.1c-6.6-12.3-15.1-22.2-25.1-28.7c-0.5-0.3-1-0.7-1.6-1C791.2,142.2,791,168,787.4,203.6z
		"/>
	<path class="st1" d="M826.4,319.1l0.1,1.1c1.8-6.6,3.3-13.3,4.5-19.9l-74.9,48.3l0-0.5c-1.4,3.9-2.9,7.6-4.4,11.4L826.4,319.1z"/>
	<path class="st1" d="M835.3,260.3l0.2,1c0.9-18-0.4-36-3.8-53.7l-52.6,54.4c-3.3,17.6-7.1,34.4-11.6,50.3L835.3,260.3z"/>
	<path class="st1" d="M702.6,169.3c-7.8,10.2-14.5,21.1-20.1,32.7l86.7,99c3.6-13.9,6.4-27.3,8.8-39.9l-75.8-90.8L702.6,169.3z"/>
	<path class="st1" d="M676.4,215.5l0.4-1l89,98.8c1-3.4,1.9-6.7,2.8-10.1l-87-99.3l0.4-1C680.1,207,678.2,211.2,676.4,215.5z"/>
	<path class="st1" d="M831.1,297.9l0.1,1.1c2.2-12,3.6-24.2,4.2-36.4l-68.7,52.8c-3,10.6-6.3,20.8-9.8,30.5L831.1,297.9z"/>
	<path class="st1" d="M731.9,400.6c-11.6,20.3-24.8,37.4-39.5,51.2c16.2-6.5,81.3-35.3,115.1-87.1L731.9,400.6z"/>
	<path class="st1" d="M662.8,265.8c-1.3,11.7-1.8,23.4-1.5,35.2l0.5-1.1l69.8,98c6.4-11.4,12.1-23.2,17.1-35.3L662.8,265.8z"/>
	<path class="st1" d="M786.1,203.5c3.9-38.5,3.7-65.4,3.7-65.8l0.7-0.3c-15.7-9.1-33.1-8.8-50-0.7L786.1,203.5z"/>
	<path class="st1" d="M750.5,362.3c-0.5,1.1-0.9,2.3-1.4,3.4c-4.6,10.9-9.8,21.5-15.5,31.8l74.9-35.5l0,1.1
		c5.9-9.2,10.6-19.1,13.9-29.4c1.3-4.1,2.5-8.2,3.6-12.3L750.5,362.3z"/>
	<path class="st1" d="M778.4,258.5c3.4-18.6,5.7-36.3,7.4-52.2l-46.7-68.3l0.5-0.9c-12.7,6.3-25.2,17-36.4,31.3L778.4,258.5z"/>
	<path class="st1" d="M730.7,399.7l-69.3-97.2C663,373,687.1,448.2,688.6,453C705.3,438.1,719.1,419.8,730.7,399.7z"/>
	<path class="st1" d="M749.6,360.6L749.6,360.6c6-14.7,11.2-29.7,15.6-45l-89.3-99c-2.4,5.9-4.7,12.1-6.7,18.5
		c-2.9,9.2-4.9,18.6-6.1,28.2L749.6,360.6z"/>
	<path class="st1" d="M889.2,458.5l-48,8.7c-11.5,11.3-24.8,23.6-39.4,35.9l73.8-8.2l-0.4,0.9c6.9-12.9,11.8-25.8,14.3-38
		L889.2,458.5z"/>
	<path class="st1" d="M843.2,465.2l46.5-8.4c2.8-13.7,2.6-26.7-1-38.1c-0.2-0.6-0.4-1.2-0.6-1.8
		C885.3,420.4,868.7,440.1,843.2,465.2z"/>
	<path class="st1" d="M799.6,579l-0.6,0.9c5.6-4,11-8.1,16.2-12.4l-88.5-10.5l0.3-0.4c-3.5,2.1-7.1,4.1-10.6,6L799.6,579z"/>
	<path class="st1" d="M843.9,539.5l-0.5,0.9c12.1-13.3,22.6-28,31.3-43.7l-75.2,8.4c-13.8,11.5-27.4,21.9-41,31.4L843.9,539.5z"/>
	<path class="st1" d="M799.8,384.7c-12.5,2.9-24.6,7-36.3,12.3l3.7,131.5c11.6-8.4,22.4-16.9,32.2-25.1l-0.5-118.3L799.8,384.7z"/>
	<path class="st1" d="M750.1,403.6l1-0.5l5.6,132.9c2.9-2,5.7-4,8.6-6l-3.7-132l1-0.5C758.4,399.4,754.2,401.4,750.1,403.6z"/>
	<path class="st1" d="M816.7,565.8l-0.6,0.9c9.4-7.9,18.2-16.3,26.5-25.4l-86.6-3.2c-9.1,6.2-18.1,12-27,17.3L816.7,565.8z"/>
	<path class="st1" d="M674.8,581.6c-21.9,8.2-43,13-63.1,14.3c16.6,5.3,85.1,24.7,144.2,6.3L674.8,581.6z"/>
	<path class="st1" d="M707.6,433.7c-8.4,8.2-16.3,16.9-23.6,26.1l1.1-0.5l-8.7,120c12.2-4.7,24.1-10.1,35.7-16.2L707.6,433.7z"/>
	<path class="st1" d="M842.3,464.3c27.6-27.2,44.6-48,44.8-48.3l0.7,0.2c-6.3-17-19.9-27.9-38.1-32.4L842.3,464.3z"/>
	<path class="st1" d="M713.6,564c-1.1,0.6-2.2,1.2-3.3,1.7c-10.5,5.5-21.2,10.3-32.2,14.6l80.3,20.4l-0.6,0.8
		c10.4-3.3,20.3-7.9,29.5-13.8c3.6-2.3,7.1-4.7,10.6-7.1L713.6,564z"/>
	<path class="st1" d="M801.3,501.8c14.4-12.2,27.6-24.3,39-35.5l7.6-82.4l1-0.4c-13.8-3.3-30.2-3-48,0.9L801.3,501.8z"/>
	<path class="st1" d="M674.4,580.1L683,461c-43.7,55.4-73.1,128.6-75,133.3C630.4,593.5,652.8,588.2,674.4,580.1z"/>
	<path class="st1" d="M714,562L714,562c14-7.5,27.6-15.7,40.7-24.7l-5.6-133.2c-5.6,3-11.3,6.3-17,9.9c-8.1,5.2-15.7,11.2-22.6,17.8
		L714,562z"/>
	<path class="st1" d="M640.1,298.2l-18.4,45.1c3.3,15.8,6.6,33.6,9.2,52.5l32.6-66.7l0.5,0.8c-7.2-12.7-15.5-23.8-24.5-32.5
		L640.1,298.2z"/>
	<path class="st1" d="M621.1,340.6l17.8-43.7c-10.1-9.7-21.2-16.5-32.7-19.5c-0.6-0.2-1.2-0.3-1.8-0.4
		C605.7,281,613.6,305.6,621.1,340.6z"/>
	<path class="st1" d="M693.9,438.3l0.4,1c-0.4-6.8-1-13.6-1.9-20.3l-56.3,69.1l-0.2-0.5c-0.2,4.1-0.4,8.2-0.6,12.1L693.9,438.3z"/>
	<path class="st1" d="M684.2,379.7l0.5,0.9c-4.7-17.4-11.5-34.1-20.2-49.9l-33.2,68c2.3,17.8,3.8,34.9,4.5,51.4L684.2,379.7z"/>
	<path class="st1" d="M529.8,334.2c-4.2,12.1-7.3,24.6-9,37.3l113.1,67.3c-0.9-14.3-2.3-28-4-40.7l-100.2-62.9L529.8,334.2z"/>
	<path class="st1" d="M519.2,386.2l0.1-1.1l115.2,66.4c-0.1-3.5-0.3-7-0.5-10.4l-113.5-67.6l0.1-1.1
		C520.1,377,519.6,381.6,519.2,386.2z"/>
	<path class="st1" d="M691.8,416.8l0.4,1c-1.6-12.1-4-24.1-7.3-36L636,453.2c0.4,11,0.4,21.7,0.1,32.1L691.8,416.8z"/>
	<path class="st1" d="M629.2,545.1c-4.8,22.9-12.1,43.3-21.7,60.9c13.4-11.2,66.4-58.7,82.5-118.4L629.2,545.1z"/>
	<path class="st1" d="M521.9,438.3c2.4,11.5,5.5,22.9,9.4,33.9l0.2-1.2l96.7,71.6c2.6-12.8,4.4-25.8,5.4-38.8L521.9,438.3z"/>
	<path class="st1" d="M619.9,340.9c-8.2-37.9-16.7-63.3-16.8-63.7l0.5-0.5c-17.8-3.8-34.2,1.9-47.8,14.8L619.9,340.9z"/>
	<path class="st1" d="M635.1,502.9c-0.1,1.2-0.2,2.5-0.3,3.7c-1,11.8-2.6,23.5-4.9,35l60.2-56.9l0.4,1c2.7-10.5,4.1-21.4,4.2-32.3
		c0-4.3-0.1-8.5-0.3-12.8L635.1,502.9z"/>
	<path class="st1" d="M629.6,395.6c-2.6-18.7-5.8-36.3-9.1-51.9L555,293.2l0.2-1c-10.1,9.9-18.7,23.9-24.9,41.1L629.6,395.6z"/>
	<path class="st1" d="M627.8,544.7l-96-71.1c23.4,66.5,69.5,130.6,72.5,134.7C615.5,589,623,567.3,627.8,544.7z"/>
	<path class="st1" d="M633.7,501.5L633.7,501.5c1.2-15.9,1.5-31.7,0.9-47.6l-115.5-66.6c-0.5,6.4-0.7,12.9-0.7,19.6
		c0.1,9.6,1.1,19.2,2.9,28.7L633.7,501.5z"/>
	<ellipse class="st2" cx="500" cy="671.8" rx="487" ry="28.2"/>
	<path class="st3" d="M669.1,635.9c0,54.8-76.3,37.8-169.8,37.8s-168.7,16.9-168.7-37.8s76.3-66.7,169.8-66.7
		S669.1,581.2,669.1,635.9z"/>
	<path class="st2" d="M669.1,622.4c0,54.8-76.3,37.8-169.8,37.8s-168.7,16.9-168.7-37.8c0-54.8,76.3-66.7,169.8-66.7
		S669.1,567.7,669.1,622.4z"/>
	<path class="st4" d="M687.5,394.2c0,0,0,91.9,4.9,112.3s22.5,94,22.5,94l23.9-4.9c0,0-4.2-97.5-8.4-111.6
		c-4.2-14,4.9-71.6,16.8-84.2c11.9-12.6-5.6-20.4-5.6-20.4L687.5,394.2z"/>
	<path class="st3" d="M687.5,394.2c0,0,0,91.9,4.9,112.3s22.5,94,22.5,94l23.9-4.9c0,0-4.2-97.5-8.4-111.6
		c-4.2-14,4.9-71.6,16.8-84.2c11.9-12.6-5.6-20.4-5.6-20.4L687.5,394.2z"/>
	<path class="st4" d="M745.1,582.9c0,0-31.6,12.6-33.7,12.6s-3.5,36.5-3.5,36.5s2.1,21.8-32.3,28.8c-34.4,7,27.4,22.5,38.6,14.7
		c11.2-7.7,16.1-13.3,16.1-13.3l4.2-7l-1.4,11.9l4.9,0.7l11.2-22.5c0,0,2.8-16.8-0.7-21.1S745.1,582.9,745.1,582.9z"/>
	<polygon class="st5" points="586.5,451 591.4,478.4 614.6,476.3 610.4,456.6 	"/>
	<path class="st4" d="M700.2,335.2l-4.2,7c0,0-121.4-16.8-121.4,28.1s-5.6,71.6-7,73.7c-1.4,2.1,36.5,24.6,44.9,23.2
		c0,0,5.6-7.7,4.9-17.5s5.6-46.3,0-48.4c0,0,7-2.8,6.3-7c0,0,98.9,14,111.6,11.2c12.6-2.8,21.1-11.9,23.2-17.5
		c2.1-5.6,6.6-27.5,6.6-27.5l-1-37l-11.2-13.3l-16.8-2.1L710,324L700.2,335.2z"/>
	<path class="st5" d="M775.3,401.9c0,0-9.8,22.5,1.4,22.5s15.4-19.6,15.4-19.6L775.3,401.9z"/>
	<path class="st6" d="M700.2,220.1l-3.5-4.2c0,0-39.3-88.4-23.9-112.3c15.4-23.9,82.8-27.4,84.9-26c2.1,1.4,8.4,6.3,7.7,7.7
		c-0.7,1.4-14.7,4.9-9.8,13.3c0,0-7,2.1-8.4-0.7c-1.4-2.8-5.6-3.5-7-0.7c-1.4,2.8-23.9,9.1-23.9,11.2s-3.5,12.6-7,14
		c-3.5,1.4,0.7,22.5,7.7,28.1c7,5.6,11.9,21.1,11.9,21.1l-3.5,31.6L700.2,220.1z"/>
	<path class="st4" d="M720.3,102c-4.2,2.1-8.4,4.9-10.9,9.2c-5.2,8.8-1.9,20.8-5.1,30.7c-1.4,4.2-3.9,7.8-5.9,11.7
		s-3.7,8.3-3.2,12.7c0.5,4.4,3.1,8.1,4.3,12.3c2.1,7.2,0,15-2.4,22.1c-1.3,3.9-2.7,7.7-4.1,11.6c-0.8,2.2-1.9,4.6-3.8,5.7l16.6,1.4
		c4.8,0.4,10.2,0.6,14-2.7c1.5-1.5,2.8-3.2,3.6-5.2c3.7-7.8,4.4-17.1,3.9-25.9c-0.4-8.9-1.8-17.7-1.7-26.5c-0.1-2.9,0.3-5.8,1.2-8.6
		c0.9-2.2,1.9-4.3,3.1-6.3c3.8-7.3,5.3-15.7,6.9-24c1-5.7,2.7-13.9-0.3-19.2C733.5,95.6,724.3,100,720.3,102z"/>
	<circle class="st5" cx="736.7" cy="135.2" r="28.8"/>
	<path class="st5" d="M725.4,159.8c0,0,4.6,17.9,1.8,27s38.2-12.3,38.2-12.3s-12.6-16.8-12.6-22.5L725.4,159.8z"/>
	<path class="st6" d="M778.1,187.1c0,0-9.1-7-9.1-10.5c0-3.5-6.3-11.2-6.3-11.2s-30.2,15.4-31.6,15.4c-1.4,0-2.1-9.1-2.1-9.1
		l-32.3,44.2c0,0-10.5,25.3-7,44.9c3.5,19.6,9.1,40,6.3,58.2c-2.8,18.2,0.7,24.6,4.9,22.5s0-9.1,9.1-8.4c9.1,0.7,40-9.1,42.1-13.3
		c2.1-4.2,10.5,9.1,11.2,16.8c0.7,7.7-1.4,28.8,0,28.1c1.4-0.7,3.5-12.6,4.2-18.2c0.7-5.6,2.8-23.9,0-26.7c-2.8-2.8-0.7-7,1.4-8.4
		c2.1-1.4,36.5-88.4,36.5-88.4s-3.5-18.2-15.4-24.6C778.1,192.1,778.1,187.1,778.1,187.1z"/>
	<path class="st6" d="M794.2,211l11.2,11.9v63.2c0,0,14.7,75.8,5.6,80c-9.1,4.2-13.3,2.8-13.3,2.8s2.1,38.6-4.2,38.6
		s-16.1-2.8-21.8-1.4c0,0,1.4-14,5.6-20.4s4.2-17.5,4.2-17.5s-6.3,0-6.3-9.1c0-9.1-0.7-14.7-1.4-16.8s-5.6-39.3-5.6-39.3L794.2,211z
		"/>
	<path class="st4" d="M730.5,100.6c4.9-3.1,11.3-0.8,16.9-1.9c6.1-1.2,11.2-6.6,17.5-6.3c5.2,0.3,9.3,4.4,12.7,8.3
		c3.1,3.5,5.9,7.4,8.1,11.6c2.3,4.6,3.6,9.7,4.8,14.7l4.1,16.8c1.4,5.7,2.8,11.5,5.4,16.8s6.4,10.2,11.5,13
		c-6.3,1.9-13.1,1.9-19.4,0.1c2.4,6.3,6.5,12,11.7,16.3c-4.7,1.4-9.7,0-14.6,0.3c-7.1,0.5-13.5,4.7-16.8,11
		c-2.6,5-2.9,10.7-4.5,16.1c-4.5,16.1-20.4,28.2-37.1,28.4c4.7-6.7,9.6-14.6,7.8-22.6c-1.1-4.8-4.5-8.9-5.6-13.8
		c-1.1-5.2,0.7-10.5,1.9-15.6c1.2-5.2,1.7-11.1-1.5-15.3c-3.4-4.5-10.2-6-12.4-11.1c-0.7-1.9-1-3.9-0.9-6l-0.1-9.2
		c-0.1-1.9,0-3.9,0.5-5.8c0.7-2.5,2.4-4.5,4-6.6c3-3.9,5.9-8,7.1-12.7c1.4-5.8-0.8-9.4-3.6-14C725.7,109.1,726.3,103.3,730.5,100.6z
		"/>
	<path class="st5" d="M761.2,82.6c0,0,32.3,28.1,23.9,37.9s-21.8-18.2-21.8-18.2l-14-10.5L761.2,82.6z"/>
	<path class="st4" d="M626.5,459.4c0,0-37.2,9.1-41.4,16.8c0,0-4.9,23.9-4.9,33.7c0,9.8-2.1,28.1-21.8,31.6
		c-19.6,3.5-33.7,9.8-7,14.7c26.7,4.9,34.4,6.3,42.1-4.2c7.7-10.5,11.9-13.3,11.9-13.3l5.6,14h3.5l13.3-28.8c0,0,1.4-14-2.1-22.5
		C622.3,493.1,626.5,459.4,626.5,459.4z"/>
	<path class="st6" d="M765.1,85c0,0-1.1,11.2-16.3,13.3l-3.3-10.5l10.5-9.1L765.1,85z"/>
	<circle class="st1" cx="390.4" cy="440.8" r="75.7"/>
	<path class="st1" d="M351.8,328.4L351.8,328.4c-29,9.7-60.7-4.2-73.1-32.1l-82.1-184.4c-17.9-40.1,0.2-87.1,40.3-105
		c2.3-1,4.7-1.9,7.1-2.7l0,0c41.6-14,86.7,8.5,100.7,50.1c0.9,2.6,1.6,5.2,2.2,7.9l44.1,196.9C397.5,288.8,380.7,318.7,351.8,328.4z
		"/>
	<circle class="st3" cx="390.4" cy="440.8" r="75.7"/>
	<path class="st3" d="M351.8,328.4L351.8,328.4c-29,9.7-60.7-4.2-73.1-32.1l-82.1-184.4c-17.9-40.1,0.2-87.1,40.3-105
		c2.3-1,4.7-1.9,7.1-2.7l0,0c41.6-14,86.7,8.5,100.7,50.1c0.9,2.6,1.6,5.2,2.2,7.9l44.1,196.9C397.5,288.8,380.7,318.7,351.8,328.4z
		"/>
	<circle class="st1" cx="387.6" cy="432.5" r="60.8"/>
	<path class="st1" d="M344.6,306.6L344.6,306.6c-26.6,8.9-55.7-3.8-67.1-29.5L202.2,108c-16.4-36.8,0.2-79.9,37-96.3
		c2.1-0.9,4.3-1.8,6.5-2.5l0,0c38.2-12.8,79.5,7.8,92.4,46c0.8,2.4,1.5,4.8,2,7.3l40.4,180.7C386.6,270.3,371.1,297.7,344.6,306.6z"
		/>
</g>
<path class="st7" d="M332.3,555.9c-0.9-6.1-4.5-11.5-9.7-14.7c-1.9-1.1-3.7-2.6-5.4-4.2c0-0.8,0.1-1.5,0.1-2.3
	c0-16.7-10.2-30.2-22.8-30.2c-0.4,0-0.9,0-1.3,0c-8.4-6.7-18.1-7.4-27.3-8.1c-8.2-0.7-16.4,0.7-24,4c-2.6,1.6-5,3.3-7.2,5
	c-1.8-0.6-3.8-1-5.8-1c-12.6,0-22.8,13.5-22.8,30.2c0,10,3.1,23.4,8.6,29.8c-4.6,8.2-16.7,9-16.7,9c-37-7-54,7-54,7l-5.6-4.8
	c-7.3-6.3-18,2.8-12.7,10.9c1.8,2.6,3.9,4.9,6.3,6.9c-6,9-2,24,1,31s-12,17-18,26s0,15,19,16s14-8,14-8s6.5-0.9,14.8-5.7
	c0.8,4,2.6,7.7,6.7,8.2c4.4,0.4,8.8,0.5,13.2,0.4c8-0.1,14.3-6.6,14.2-14.6c0-1.4-0.2-2.7-0.6-4c4-0.1,8.4-1,13.1-2.9
	c1.2,6.2,0.2,11.1,0.1,11.1c-0.1,0.1-0.1,0.2-0.2,0.3c-1.1,1.7-1.6,3.7-1.6,5.7c0.2,5.5,4.8,9.9,10.3,9.7c4.2-0.1,10.4-0.1,18.4,0.4
	c16,1,6-13,4-16s0-13,0-13c0.9-0.5,1.7-1,2.5-1.5c8.2,3.7,27.4,2.5,27.4,2.5c1.4,3.7,4.6,6.4,8.5,7.2c0,0,0.1,0,0.1,0
	c7.7,1.4,15.1-3.8,16.5-11.5c2.4-12.6-11.9-19.5-19.2-18.7c-4,0.4-8.2-1.7-11.6-4.2c6.6-13.2,8.2-25.3,8.2-25.3
	C331.5,600.5,335.2,573.1,332.3,555.9z"/>
<g>
	<g>
		<path class="st8" d="M319,538.6c-0.6-0.5-1.2-1.1-1.9-1.7c0-0.8,0.1-1.5,0.1-2.3c0-0.1,0-0.1,0-0.2"/>
		<path class="st9" d="M316.9,529.5c-1.8-14.3-11.2-25.1-22.5-25.1c-0.4,0-0.9,0-1.3,0c-8.4-6.7-18.1-7.4-27.3-8.1
			c-8.2-0.7-16.4,0.7-24,4c-1.1,0.7-2.2,1.4-3.2,2.1"/>
		<path class="st8" d="M236.5,503.9c-0.7,0.5-1.4,1-2,1.5c-0.8-0.3-1.6-0.5-2.4-0.7"/>
		<path class="st10" d="M227.2,504.4c-11.9,1.1-21.3,14.2-21.3,30.2c0,8.2,2.1,18.6,5.8,25.7"/>
		<path class="st8" d="M213,562.4c0.5,0.7,1,1.4,1.5,2c-0.4,0.7-0.9,1.4-1.4,2"/>
		<path class="st11" d="M209.5,569.5c-5.3,3.4-11.8,3.9-11.8,3.9c-26.6-5-42.8,0.8-49.9,4.5"/>
		<path class="st8" d="M145.8,579c-1.4,0.8-2.1,1.4-2.1,1.4l-1.9-1.6"/>
		<path class="st12" d="M138,575.4c-7.3-6-17.8,3-12.5,11c0.8,1.2,1.7,2.3,2.7,3.4"/>
		<path class="st8" d="M129.9,591.7c0.6,0.6,1.2,1.1,1.9,1.7c-0.5,0.7-0.9,1.4-1.2,2.2"/>
		<path class="st13" d="M129.1,600.2c-1.6,8.5,1.3,18.8,3.7,24.2c3,7-12,17-18,26s0,15,19,16c9,0.5,12.6-1.3,13.9-3.3"/>
		<path class="st8" d="M148.4,660.8c0-1.3-0.6-2.4-0.6-2.4s0.9-0.1,2.4-0.5"/>
		<path class="st14" d="M153.7,656.8c1.5-0.5,3.2-1.2,5-2.1"/>
		<path class="st8" d="M160.4,653.9c0.7-0.4,1.5-0.8,2.2-1.2c0.2,0.8,0.4,1.6,0.6,2.4"/>
		<path class="st15" d="M165.9,659.4c0.9,0.8,2,1.3,3.4,1.4c4.4,0.4,8.8,0.5,13.2,0.4c7.6-0.1,13.8-6.1,14.2-13.6"/>
		<path class="st8" d="M196.6,645.1c-0.1-0.8-0.3-1.6-0.5-2.4c0.8,0,1.6-0.1,2.5-0.2"/>
		<path class="st16" d="M201.3,642.1c1.3-0.3,2.7-0.6,4.1-1"/>
		<path class="st8" d="M206.8,640.6c0.8-0.3,1.5-0.6,2.3-0.9c0.2,0.9,0.3,1.7,0.4,2.5"/>
		<path class="st17" d="M209.7,647.1c-0.1,2.3-0.4,3.7-0.4,3.7c-0.1,0.1-0.1,0.2-0.2,0.3c-1.1,1.7-1.6,3.7-1.6,5.7
			c0.2,5.5,4.8,9.9,10.3,9.7c4.2-0.1,10.4-0.1,18.4,0.4c16,1,6-13,4-16c-1.1-1.6-1-5.1-0.7-8.1"/>
		<path class="st8" d="M239.9,640.3c0.2-1.5,0.4-2.5,0.4-2.5c0.9-0.5,1.7-1,2.5-1.5c0.7,0.3,1.5,0.6,2.4,0.8"/>
		<path class="st18" d="M249.6,638.2c5.4,0.8,11.7,0.9,15.9,0.8"/>
		<path class="st8" d="M267.7,639c1.6-0.1,2.5-0.1,2.5-0.1c0.3,0.8,0.7,1.5,1.1,2.2"/>
		<path class="st19" d="M274.8,644.5c1.2,0.8,2.6,1.3,4,1.6c0,0,0.1,0,0.1,0c7.7,1.4,15.1-3.8,16.5-11.5
			c2.4-12.6-11.9-19.5-19.2-18.7c-2.5,0.3-5-0.4-7.4-1.6"/>
		<path class="st8" d="M266.7,613.1c-0.7-0.4-1.4-0.9-2.1-1.4c0.4-0.8,0.7-1.5,1.1-2.2"/>
		<path class="st20" d="M267.4,605.5c2.4-5.8,3.7-11,4.5-14.5"/>
		<path class="st8" d="M272.4,588.8c0.3-1.6,0.4-2.5,0.4-2.5c0.8,0.2,1.6,0.4,2.4,0.6"/>
		<path class="st21" d="M280,588c51.8,10.2,55-15.6,52.2-32.1c-0.9-6.1-4.5-11.5-9.7-14.7c-0.5-0.3-1.1-0.7-1.6-1"/>
	</g>
</g>
</svg>
