<?xml version="1.0" encoding="utf-8"?>
<!-- Generator: Adobe Illustrator 22.1.0, SVG Export Plug-In . SVG Version: 6.00 Build 0)  -->
<svg version="1.1" id="Layer_1" xmlns="http://www.w3.org/2000/svg" xmlns:xlink="http://www.w3.org/1999/xlink" x="0px" y="0px"
	 viewBox="0 0 1000 700" style="enable-background:new 0 0 1000 700;" xml:space="preserve">
<style type="text/css">
	.st0{opacity:0.1;}
	.st1{fill:none;stroke:#535461;stroke-width:2;stroke-miterlimit:10;}
	.st2{fill:#FFC107;}
	.st3{opacity:0.25;enable-background:new    ;}
	.st4{opacity:0.1;fill:#FFC107;enable-background:new    ;}
	.st5{fill:#535461;}
	.st6{opacity:0.1;enable-background:new    ;}
	.st7{opacity:0.17;enable-background:new    ;}
	.st8{opacity:5.000000e-02;enable-background:new    ;}
	.st9{fill:#E0E0E0;}
	.st10{fill:url(#SVGID_1_);}
	.st11{opacity:0.5;fill:#FFFFFF;enable-background:new    ;}
	.st12{fill:#3F2B3B;}
	.st13{fill:none;stroke:#3F2B3B;stroke-miterlimit:10;}
	.st14{opacity:7.000000e-02;enable-background:new    ;}
	.st15{fill:#A8A8A8;}
	.st16{opacity:0.2;enable-background:new    ;}
	.st17{fill:#FFD037;}
	.st18{fill:#FFFFFF;}
</style>
<g class="st0">
	<path class="st1" d="M676.1,529.7c0,0,37.7-92.8,108-127.3c29.6-14.3,53.8-37.7,68.9-66.9c7.1-13.9,12.9-28.4,17.3-43.4"/>
	<path class="st2" d="M914.5,270.2c-7.3,9.2-45.3,22.7-45.3,22.7s4.6-40,11.9-49.2c6.8-9.7,20.1-12,29.8-5.2s12,20.1,5.2,29.8
		C915.6,268.9,915.1,269.6,914.5,270.2L914.5,270.2z"/>
	<path class="st2" d="M901.5,343.2c-11.2,3.8-50.3-5.6-50.3-5.6s25.6-31.1,36.7-34.8c10.9-4.5,23.4,0.6,27.9,11.5
		s-0.6,23.4-11.5,27.9C903.4,342.6,902.4,342.9,901.5,343.2z"/>
	<path class="st2" d="M830.9,429.5c-11.5-2.4-40.6-30.2-40.6-30.2s37.8-13.9,49.3-11.5c11.4,3.2,18,15,14.8,26.3
		C851.5,424.4,841.5,431,830.9,429.5z"/>
	<path class="st2" d="M762.7,482.8c-11.8-0.4-45.2-22.9-45.2-22.9s34.9-20.1,46.7-19.7c11.8-0.3,21.6,9,21.9,20.8
		c0.3,11.8-9,21.6-20.8,21.9C764.5,482.9,763.6,482.8,762.7,482.8z"/>
	<path class="st2" d="M814.7,311.5c1.5,11.7,27,42.8,27,42.8s16.8-36.6,15.3-48.3c-0.7-11.8-10.9-20.7-22.7-20s-20.7,10.9-20,22.7
		C814.4,309.7,814.5,310.6,814.7,311.5z"/>
	<path class="st2" d="M735.8,374.9c4.9,10.7,38.6,32.8,38.6,32.8s5.1-40,0.1-50.7c-5.6-10.4-18.6-14.2-29-8.6
		C736.1,353.5,731.9,364.8,735.8,374.9z"/>
	<path class="st2" d="M667.6,446.9c3.1,11.4,32.5,38.8,32.5,38.8s11.8-38.5,8.7-49.9c-3.8-11.2-15.9-17.2-27.1-13.5
		C671.5,425.8,665.4,436.3,667.6,446.9L667.6,446.9z"/>
	<path class="st3" d="M914.5,270.2c-7.3,9.2-45.3,22.7-45.3,22.7s4.6-40,11.9-49.2c6.8-9.7,20.1-12,29.8-5.2s12,20.1,5.2,29.8
		C915.6,268.9,915.1,269.6,914.5,270.2L914.5,270.2z"/>
	<path class="st3" d="M901.5,343.2c-11.2,3.8-50.3-5.6-50.3-5.6s25.6-31.1,36.7-34.8c10.9-4.5,23.4,0.6,27.9,11.5
		s-0.6,23.4-11.5,27.9C903.4,342.6,902.4,342.9,901.5,343.2z"/>
	<path class="st3" d="M830.9,429.5c-11.5-2.4-40.6-30.2-40.6-30.2s37.8-13.9,49.3-11.5c11.4,3.2,18,15,14.8,26.3
		C851.5,424.4,841.5,431,830.9,429.5z"/>
	<path class="st3" d="M762.7,482.8c-11.8-0.4-45.2-22.9-45.2-22.9s34.9-20.1,46.7-19.7c11.8-0.3,21.6,9,21.9,20.8
		c0.3,11.8-9,21.6-20.8,21.9C764.5,482.9,763.6,482.8,762.7,482.8z"/>
	<path class="st3" d="M814.7,311.5c1.5,11.7,27,42.8,27,42.8s16.8-36.6,15.3-48.3c-0.7-11.8-10.9-20.7-22.7-20s-20.7,10.9-20,22.7
		C814.4,309.7,814.5,310.6,814.7,311.5z"/>
	<path class="st3" d="M735.8,374.9c4.9,10.7,38.6,32.8,38.6,32.8s5.1-40,0.1-50.7c-5.6-10.4-18.6-14.2-29-8.6
		C736.1,353.5,731.9,364.8,735.8,374.9z"/>
	<path class="st3" d="M667.6,446.9c3.1,11.4,32.5,38.8,32.5,38.8s11.8-38.5,8.7-49.9c-3.8-11.2-15.9-17.2-27.1-13.5
		C671.5,425.8,665.4,436.3,667.6,446.9L667.6,446.9z"/>
</g>
<g class="st0">
	<path class="st1" d="M704.3,389.1c0,0,4.8-100.1,59.7-155.9c23.2-23.3,38.2-53.4,42.8-86c2-15.5,2.7-31.1,1.9-46.6"/>
	<path class="st2" d="M843.1,65.3c-3.9,11.1-35.2,36.4-35.2,36.4s-8.9-39.3-5.1-50.4c3.2-11.4,14.9-18,26.3-14.9
		c11.4,3.2,18,14.9,14.9,26.3C843.8,63.6,843.5,64.4,843.1,65.3z"/>
	<path class="st2" d="M855.1,138.4c-9.3,7.3-49.3,11.4-49.3,11.4s13.8-37.8,23.1-45.1c9.8-6.6,23-4.1,29.7,5.6
		C864.6,119.3,863.1,131.3,855.1,138.4z"/>
	<path class="st2" d="M817.1,243.3c-11.7,1.6-48.4-15-48.4-15s31-25.7,42.6-27.2c11.8-0.8,22,8.1,22.8,19.9
		C834.9,231.6,827.6,241.2,817.1,243.3L817.1,243.3z"/>
	<path class="st2" d="M770.5,316.1c-11.2,3.5-50.2-6.7-50.2-6.7s26.2-30.5,37.5-34.1c11-4.2,23.4,1.2,27.6,12.3
		c4.2,11-1.2,23.4-12.3,27.6C772.3,315.6,771.4,315.9,770.5,316.1L770.5,316.1z"/>
	<path class="st2" d="M762.7,137.4c5.3,10.5,39.7,31.5,39.7,31.5s3.7-40.1-1.6-50.6c-4.6-10.9-17.2-15.9-28-11.3
		c-10.9,4.6-15.9,17.2-11.3,28C761.8,135.8,762.2,136.6,762.7,137.4L762.7,137.4z"/>
	<path class="st2" d="M709.3,223.3c8.2,8.5,47.3,18.1,47.3,18.1s-8.5-39.4-16.7-47.8c-7.6-9-21.1-10.1-30.1-2.5s-10.1,21.1-2.5,30.1
		C707.9,221.9,708.6,222.6,709.3,223.3L709.3,223.3z"/>
	<path class="st2" d="M668.8,313.9c6.7,9.7,43.5,25.9,43.5,25.9s-1.7-40.2-8.3-49.9c-5.9-10.2-19-13.6-29.2-7.7s-13.6,19-7.7,29.2
		C667.6,312.2,668.2,313,668.8,313.9L668.8,313.9z"/>
</g>
<ellipse class="st4" cx="498.7" cy="624.8" rx="261.2" ry="73.2"/>
<polygon class="st5" points="723.1,312.6 499.4,258.7 499.4,680.2 723.1,621.7 "/>
<polygon class="st6" points="723.1,312.6 499.4,258.7 499.4,680.2 723.1,621.7 "/>
<polygon class="st5" points="275.8,312.6 499.4,258.7 499.4,680.2 275.8,622.9 "/>
<polygon class="st7" points="275.8,310.7 499.4,256.8 499.4,680.2 275.8,622.9 "/>
<polygon class="st5" points="497.5,260.6 615.3,162.7 839,220.1 721.2,314.4 "/>
<polygon class="st5" points="162.9,223.1 277.6,314.4 501.3,260.6 387.7,164.6 "/>
<polygon class="st8" points="161,221.2 278.6,314.4 502.2,260.6 385.8,162.7 "/>
<path class="st9" d="M371.1,374.8h83.3c0.4,0,0.7,0.3,0.7,0.7v1.2c0,0.4-0.3,0.7-0.7,0.7h-83.3c-0.4,0-0.7-0.3-0.7-0.7v-1.2
	C370.4,375.1,370.7,374.8,371.1,374.8z"/>
<rect x="479.9" y="373.2" class="st9" width="95.9" height="4.1"/>
<rect x="513.6" y="389.9" class="st2" width="30.3" height="4.1"/>
<linearGradient id="SVGID_1_" gradientUnits="userSpaceOnUse" x1="528.7113" y1="556.0551" x2="528.7113" y2="18.1214" gradientTransform="matrix(1 0 0 1 -31.16 -18.14)">
	<stop  offset="0" style="stop-color:#808080;stop-opacity:0.25"/>
	<stop  offset="0.54" style="stop-color:#808080;stop-opacity:0.12"/>
	<stop  offset="1" style="stop-color:#808080;stop-opacity:0.1"/>
</linearGradient>
<path class="st10" d="M706,109.6c0.9-7.8,2.2-15.6,3.6-23.4c6.2-33.8-3.2-65.9-7.8-79.2l0,0c-1.4-4.1-2.5-6.4-2.5-6.4
	c-24.9-6.8-123,69.3-158.7,98c-12.4,0-25.8,0.5-40.5,1.5c-6.4,0.5-12.8,0.6-19.2,0.5c-5.7,0-13.9,0-23.4,0
	C424.2,73.8,321.5-6.5,296,0.4c0,0-1.1,2.3-2.5,6.4l0,0c-4.8,13.3-14.2,45.5-8,79.2c1.4,7.8,2.7,15.6,3.6,23.4
	c1.9,17.2,9.1,50.1,35.2,72.3c5.6,40.6,26.5,94,42.6,126.5c1.2,6.1,3,12.1,5.5,17.9c-6.6,25.6-14.3,59.1-12.1,70.3
	c0,0-34.7-8.4-38.2,33.4c0,0.4,0,0.9,0,1.3c-12.5,5.7-28.2,18.9-10.6,46.5c2.1,3.4,5.3,6,9.1,7.4c3.1,1.1,6.2,1.1,5.9-3.3l21.7,24.4
	c0,0,39.3,4.5,39.8-18.3l2.3,0.4c5.3,0.8,10.8,1.4,16.4,2l2.7,9c0,0-29.5-0.6-21.4,17.5c0,0,7.4,6.9,10,4.4c0,0-3.9,11.9,11.5,11.9
	c0,0,16.5,8.8,23,2.5c6.4-6.3,19.8-15.6,21.1-19.5c0.4-1.1,0.5-10.3,0.6-23.1h2.5c32.9,0.8,67.9-0.3,99.7-2h2.6
	c0,13.9,0.2,24.1,0.5,25.2c1.3,3.9,14.7,13.2,21.1,19.5c6.4,6.4,22.9-2.5,22.9-2.5c15.3,0,11.5-11.9,11.5-11.9
	c2.6,2.5,10-4.4,10-4.4c8-18.2-21.5-17.5-21.5-17.5l3.5-11.7l16.3-1.4l2.6-0.2c-1.6,24.8,39.7,20,39.7,20l21.7-24.4
	c-0.4,4.4,2.7,4.4,5.8,3.3c3.7-1.5,6.8-4.1,8.8-7.5c26.6-41.6-22.5-50.4-22.5-50.4c-1.5-0.4-3.1-0.6-4.6-0.7c0-0.7,0-1.4,0.2-2.1
	l0,0c0.6-5.5,0.7-11,0.3-16.5c-1.8-7.5-13.9-19.5-29.3-21.3c-10-1.3-10.2-47.2-9.2-79c1.1-6,1.6-12,1.6-18.1
	c0.2-9.8-1.1-19.6-3.9-29c19.5-33.1,35.2-67.9,36.9-78.1C696.9,159.6,704.1,126.8,706,109.6z"/>
<path class="st2" d="M668.2,426.3L668.2,426.3c-1.6,21.6-5.7,56.4-5.7,56.4s-17.4,2.1-44.3,4.5l-18.2,1.6c-14,1.1-29.7,2.2-46.3,3.2
	c-30.7,1.7-64.3,2.7-96.1,2c-15.9-0.4-31.3-1.2-45.5-2.6c-6.4-0.6-12.5-1.4-18.4-2.2c-36.4-5.4-62.5-15.8-64.7-34.1
	c-1.1-7.8-1.4-15.6-0.8-23.4c3.4-41,36.8-32.7,36.8-32.7c-2.1-11.3,5.9-46.5,12.5-72c4.1-16.1,7.8-28.2,7.8-28.2l234.9-15.6h0.8
	c6.3,0,11.5,5.1,11.5,11.5c0,0.2,0,0.4,0,0.6c-1.4,28.2-3.4,92.7,8.1,94.1c14.8,1.8,26.4,13.5,28.2,20.9
	C669,415.4,668.9,420.9,668.2,426.3z"/>
<path class="st2" d="M468.7,117.1c0,0-88.6,106.6-131.2,77.1c-1-0.7-2-1.4-2.9-2.1c-28.7-21.7-36.2-56.7-38.2-74.5
	c-0.9-7.8-2.1-15.4-3.5-23c-5.9-33.2,3.1-64.7,7.8-77.8l0,0c1.4-3.9,2.4-6.3,2.4-6.3C332.5,2.3,468.7,117.1,468.7,117.1z"/>
<path class="st2" d="M421.1,126.9c0,0-27.9,19.5-67.2,51.6c-6.1,5-12.7,9.5-19.5,13.4c-28.7-21.7-36.2-56.7-38.2-74.5
	c-0.9-7.8-2.1-15.4-3.5-23c-5.9-33.2,3.1-64.7,7.8-77.8l0,0C355.6,20.6,421.1,126.9,421.1,126.9z"/>
<path class="st11" d="M421.1,126.9c0,0-27.9,19.5-67.2,51.6c-6.1,5-12.7,9.5-19.5,13.4c-28.7-21.7-36.2-56.7-38.2-74.5
	c-0.9-7.8-2.1-15.4-3.5-23c-5.9-33.2,3.1-64.7,7.8-77.8l0,0C355.6,20.6,421.1,126.9,421.1,126.9z"/>
<path class="st6" d="M390.8,116.4c0,0-14.9,10.5-35.9,27.6c-3.2,2.7-6.7,5.1-10.3,7.1c-15.3-11.7-19.5-30.3-20.4-39.7
	c-0.4-4.1-1.1-8.2-1.8-12.3c-2-14-0.5-28.2,4.3-41.5l0,0C355.8,59.7,390.8,116.4,390.8,116.4z"/>
<path class="st2" d="M526.1,117.1c0,0,88.6,106.6,131.2,77.1c1-0.7,2-1.4,2.9-2.1c28.7-21.7,36.2-56.7,38.2-74.5
	c0.9-7.8,2.1-15.4,3.4-23c5.9-33.2-3.1-64.7-7.8-77.8l0,0c-1.4-3.9-2.4-6.3-2.4-6.3C662.2,2.3,526.1,117.1,526.1,117.1z"/>
<path class="st2" d="M573.6,126.9c0,0,27.9,19.5,67.3,51.6c6.1,5,12.5,9.5,19.3,13.4c28.7-21.7,36.2-56.7,38.2-74.5
	c0.9-7.8,2.1-15.4,3.4-23c5.9-33.2-3.1-64.7-7.8-77.8l0,0C639.2,20.6,573.6,126.9,573.6,126.9z"/>
<path class="st11" d="M573.6,126.9c0,0,27.9,19.5,67.3,51.6c6.1,5,12.5,9.5,19.3,13.4c28.7-21.7,36.2-56.7,38.2-74.5
	c0.9-7.8,2.1-15.4,3.4-23c5.9-33.2-3.1-64.7-7.8-77.8l0,0C639.2,20.6,573.6,126.9,573.6,126.9z"/>
<path class="st6" d="M604.2,116.3c0,0,14.8,10.5,35.7,27.3c3.2,2.7,6.6,5,10.3,7.1c15.2-11.5,19.2-30.1,20.3-39.5
	c0.4-3.9,1.1-8.2,1.8-12.2c2-13.9,0.6-28-4.1-41.3l0,0C639,59.9,604.2,116.3,604.2,116.3z"/>
<path class="st6" d="M619.9,283c-11.2,17.7-23.1,33.6-33.9,43.2c-35.2,31.3-187,18.8-196.8,17.2c-2.1-0.4-6.4-6.5-11.7-16.4
	c4.1-16.1,7.8-28.2,7.8-28.2L619.9,283z"/>
<path class="st2" d="M499.7,108.1c-6.2,0.4-12.3,0.6-18.6,0.5c-31.7-0.5-138.4,0.9-150.3,44C317,203.3,379.3,339.3,389.1,341
	c9.8,1.6,161.6,13.9,196.9-17.2c35.3-31.2,81.2-128.9,78.7-137.8C664.7,186,708.5,93.7,499.7,108.1z"/>
<path class="st12" d="M464.2,410.7c2.1-0.4,41-17.2,81.2,0H464.2z"/>
<path class="st6" d="M393.6,489.2c-36.4-5.4-62.5-15.8-64.7-34.1c-1.1-7.8-1.4-15.6-0.8-23.4c4.4-2.3,9.1-4.1,13.9-5.1
	c6.6-1.8,14.8-0.6,32,4.3s16,25.2,19.5,51.6C393.9,484.8,393.9,487,393.6,489.2z"/>
<path class="st2" d="M339.5,429.1c0,0-47.4,8.7-21.7,49.5c2,3.3,5.1,5.9,8.8,7.2c3,1.1,5.9,1.1,5.6-3.2l20.9,24
	c0,0,41.8,4.9,38.1-21.5c-3.7-26.4-2.5-46.9-19.5-51.6C354.6,428.7,346.2,427.3,339.5,429.1z"/>
<path class="st13" d="M350.8,456.6c0,0,10,22.9,24,3.7"/>
<path class="st13" d="M327.7,465.7c0,0,5.2,21.7,24.9,5.5"/>
<path class="st6" d="M668.2,426.3L668.2,426.3c-1.6,21.6-5.7,56.4-5.7,56.4s-17.4,2.1-44.3,4.5c-0.2-1.5-0.2-3,0-4.5
	c3.7-26.4,2.5-46.9,19.5-51.6C653.7,426.7,661.9,425.1,668.2,426.3z"/>
<path class="st2" d="M672.5,429.1c0,0,47.4,8.7,21.8,49.5c-2,3.3-5.1,5.8-8.8,7.2c-3,1.1-5.9,1.1-5.6-3.2l-20.9,24
	c0,0-41.8,4.9-38.1-21.5s2.5-46.9,19.5-51.6C657.4,428.7,665.9,427.3,672.5,429.1z"/>
<path class="st13" d="M661.2,456.6c0,0-10.1,22.9-24,3.7"/>
<path class="st13" d="M684.3,465.7c0,0-5.2,21.7-24.9,5.5"/>
<path class="st6" d="M457.5,493.9c-15.9-0.4-31.3-1.2-45.5-2.6l-14.2-47.7c-0.8-2.8-1.3-5.8-1.3-8.7c0.5-16.8,14.6-29.9,31.4-29.4
	c15.9,0.5,28.8,13.3,29.4,29.2C457.4,453.2,457.6,476.8,457.5,493.9z"/>
<path class="st2" d="M395.4,443.5l16.7,56.3c0,0-28.4-0.6-20.7,17.2c0,0,7.1,6.8,9.6,4.3c0,0-3.7,11.7,11.1,11.7
	c0,0,15.9,8.6,22.1,2.5s19.1-15.4,20.4-19.1c0.8-2.4,0.5-49.5,0.3-82c-0.1-16.7-13.7-30.1-30.4-30.1l0,0
	c-16.8,0-30.4,13.5-30.4,30.3C394.1,437.7,394.5,440.7,395.4,443.5z"/>
<path class="st13" d="M418,514.5c0,0-12.4,11.7-5.9,18.6"/>
<path class="st13" d="M412.6,507c0,0-11.5,3.9-11.5,14.4"/>
<path class="st6" d="M614.6,434.8c0,2.9-0.4,5.9-1.3,8.7l-13.2,45.2c-14,1.1-29.7,2.2-46.3,3.2c0-16.9,0-39.3,0.3-57.3
	c0.1-16.8,13.7-30.3,30.5-30.3s30.3,13.7,30.3,30.5l0,0L614.6,434.8L614.6,434.8z"/>
<path class="st2" d="M615.8,443.5L599,499.9c0,0,28.5-0.6,20.7,17.2c0,0-7.1,6.8-9.6,4.3c0,0,3.7,11.7-11.1,11.7
	c0,0-15.9,8.6-22.1,2.5s-19.1-15.4-20.3-19.1c-0.8-2.4-0.5-49.5-0.3-82c0.1-16.7,13.7-30.1,30.4-30.1l0,0
	c16.8,0,30.4,13.6,30.4,30.3C617.1,437.7,616.6,440.7,615.8,443.5z"/>
<path class="st13" d="M593.2,514.5c0,0,12.4,11.7,5.9,18.6"/>
<path class="st13" d="M598.7,507c0,0,11.5,3.9,11.5,14.4"/>
<path class="st6" d="M493.9,175.7c0,0-57.9-1.8-59.7,43s90.4,25.8,90.4,25.8s38.8-5.2,32-32.4S535.8,178.2,493.9,175.7z"/>
<path class="st6" d="M493.9,170.8c0,0-57.9-1.8-59.7,43s90.4,25.8,90.4,25.8s38.8-5.2,32-32.4S535.8,173.3,493.9,170.8z"/>
<path class="st6" d="M364.9,399c0,0,19.5,7,23.4,20.3"/>
<path class="st6" d="M640.3,389.2c0,0-13.9,5.8-12.9,30.1"/>
<ellipse transform="matrix(0.867 -0.4983 0.4983 0.867 -199.8124 252.4974)" class="st2" cx="373.1" cy="500.6" rx="9.1" ry="15"/>
<ellipse transform="matrix(0.5 -0.866 0.866 0.5 -97.917 804.7938)" class="st2" cx="648" cy="487.2" rx="15" ry="9"/>
<ellipse transform="matrix(0.867 -0.4983 0.4983 0.867 -199.8124 252.4974)" class="st11" cx="373.1" cy="500.6" rx="9.1" ry="15"/>
<ellipse transform="matrix(0.5 -0.866 0.866 0.5 -97.917 804.7938)" class="st11" cx="648" cy="487.2" rx="15" ry="9"/>
<polygon class="st5" points="275.8,312.6 275.8,622.9 499.4,680.2 502.4,372.3 "/>
<polygon class="st5" points="723.1,621.7 499.4,680.2 499.4,372.3 723.1,312.6 "/>
<polygon class="st14" points="723.1,621.7 499.4,680.2 499.4,372.3 723.1,312.6 "/>
<polygon class="st14" points="634,521.9 634,614.7 723,592.3 723,499.4 "/>
<polygon class="st6" points="272.8,473.6 398.1,505.2 498.8,423.2 498.8,372.9 275.2,316.7 "/>
<polygon class="st6" points="724.8,473.6 599.5,505.2 498.8,423.2 498.8,372.9 722.5,316.7 "/>
<polygon class="st5" points="275.8,312.6 161,407.4 384.7,463.6 499.4,372.3 "/>
<polygon class="st5" points="723.1,312.6 839,407.4 616.5,463.6 499.4,372.3 "/>
<polygon class="st14" points="723.1,312.6 839,407.4 616.5,463.6 499.4,372.3 "/>
<path class="st6" d="M496.4,190.5c0,0-78.1-12-114.8,64.9c-15,30.4-12.3,66.6,6.9,94.5c12.2,17.2,30.1,29.9,55,19.5
	C498.8,346.6,496.4,190.5,496.4,190.5z"/>
<path class="st6" d="M493.9,185.6c0,0-78.1-12-114.8,64.9c-15,30.4-12.3,66.6,6.9,94.5c12.2,17.2,30.1,29.9,55,19.5
	C496.3,341.7,493.9,185.6,493.9,185.6z"/>
<path class="st2" d="M493.9,188c0,0-78.1-12-114.8,64.9c-15,30.4-12.3,66.6,6.9,94.5c12.2,17.2,30.1,29.9,55,19.5
	C496.3,344.2,493.9,188,493.9,188z"/>
<path class="st11" d="M493.9,188c0,0-78.1-12-114.8,64.9c-15,30.4-12.3,66.6,6.9,94.5c12.2,17.2,30.1,29.9,55,19.5
	C496.3,344.2,493.9,188,493.9,188z"/>
<path class="st12" d="M409.6,255.3c0,0-10.7,9.8-6.6,12.3S409.6,255.3,409.6,255.3z"/>
<path class="st12" d="M421.1,267.9c0,0-5.8,12.9-1.7,14.3c4.1,1.4,6.6-9.2,6.6-9.2L421.1,267.9z"/>
<path class="st12" d="M395.4,287.3c0,0-5.7,15.2,0,15.2S395.4,287.3,395.4,287.3z"/>
<path class="st13" d="M388.3,327.9c0,0,11.4,29.1,41.1,27.1"/>
<path class="st13" d="M415,336.5c0,0,11.7,11.5,24.6,3.3"/>
<path class="st6" d="M506.4,190.5c0,0,78.1-12,114.8,64.9c15,30.4,12.3,66.6-6.9,94.5c-12.2,17.2-30.1,29.9-55,19.5
	C503.8,346.6,506.4,190.5,506.4,190.5z"/>
<path class="st6" d="M508.7,185.6c0,0,78.1-12,114.8,64.9c15,30.4,12.3,66.6-6.9,94.5c-12.2,17.2-30.1,29.9-55,19.5
	C506.4,341.7,508.7,185.6,508.7,185.6z"/>
<path class="st2" d="M508.7,188c0,0,78.1-12,114.8,64.9c15,30.4,12.3,66.6-6.9,94.5c-12.2,17.2-30.1,29.9-55,19.5
	C506.4,344.2,508.7,188,508.7,188z"/>
<path class="st11" d="M508.7,188c0,0,78.1-12,114.8,64.9c15,30.4,12.3,66.6-6.9,94.5c-12.2,17.2-30.1,29.9-55,19.5
	C506.4,344.2,508.7,188,508.7,188z"/>
<path class="st12" d="M592.9,255.3c0,0,10.7,9.8,6.6,12.3C595.4,270,592.9,255.3,592.9,255.3z"/>
<path class="st12" d="M581.5,267.9c0,0,5.8,12.9,1.7,14.3s-6.6-9.2-6.6-9.2L581.5,267.9z"/>
<path class="st12" d="M607.2,287.3c0,0,5.7,15.2,0,15.2C601.6,302.4,607.2,287.3,607.2,287.3z"/>
<path class="st13" d="M614.3,327.9c0,0-11.4,29.1-41.1,27.1"/>
<path class="st13" d="M587.6,336.5c0,0-11.7,11.5-24.6,3.3"/>
<path class="st12" d="M493.9,173.3c0,0-57.9-1.8-59.7,43s90.4,25.8,90.4,25.8s38.8-5.2,32-32.4S535.8,175.7,493.9,173.3z"/>
<g>
	<path class="st4" d="M52.8,570.4c2.5,2.5,3.5,3.2,6,5.7c7,7.4,21.2,9.8,33.8,8.5s23.9-5.4,35.8-8.6c20.4-5.5,43.7-8,63.8-2
		c1.8,0.7,3.8,1,5.8,1c4.4-0.5,5.7-4.4,8.8-6.7c5.6-4.1,17.6-3,20.1-8.4c1.4-3.2-1.9-6.4-5.5-8.6c-13.7-8.3-33.4-9.6-51.4-8.4
		s-35.7,4.8-53.7,4.8c-22.5,0-44.3-5.4-66.6-7.6c-1.8-0.2-5-0.1-9.2,0.7c-10.8,2-18.7,8-23.5,12.4C35.7,556.9,46.4,564.2,52.8,570.4
		z"/>
	<path class="st2" d="M214.8,546.3c1.8-1.5,3.2-3.5,3.8-5.8c0.5-2.3-0.5-5-2.7-5.9c-2.5-0.9-5.1,0.8-7.1,2.5s-4.3,3.7-6.9,3.3
		c2.7-2.5,4-6.2,3.2-9.8c-0.1-0.7-0.4-1.4-0.9-2c-1.4-1.5-3.8-0.8-5.5,0.3c-5.2,3.7-6.6,10.7-6.7,17.1c-0.5-2.3-0.1-4.7-0.1-7
		s-0.7-5-2.6-6.2c-1.2-0.7-2.6-1-4-1c-2.3-0.1-4.9,0.2-6.5,1.9c-2,2.1-1.5,5.7,0.3,8s4.4,3.8,6.8,5.4c1.9,1.2,3.6,2.7,4.8,4.6
		c0.1,0.3,0.3,0.5,0.4,0.8h14.6C209,550.9,212.1,548.8,214.8,546.3z"/>
	<path class="st1" d="M82.6,552.6c0,0-18.6-63.3,3.5-109.9c9.4-19.5,12.2-41.5,8.1-62.7c-2.1-10.1-5-19.9-8.9-29.4"/>
	<path class="st2" d="M99.1,321c0,7.8-14.1,30.3-14.1,30.3S71,328.7,71,321c0-7.8,6.3-14.1,14.1-14.1C92.8,307,99.1,313.3,99.1,321
		L99.1,321z"/>
	<path class="st2" d="M122.3,364c-4.2,6.5-28.2,17.8-28.2,17.8s0.4-26.5,4.6-33s12.9-8.4,19.4-4.2
		C124.7,348.8,126.5,357.5,122.3,364L122.3,364z"/>
	<path class="st2" d="M121.3,437.4c-6.9,3.5-33.3,1.1-33.3,1.1s13.8-22.7,20.7-26.2c6.9-3.5,15.4-0.7,18.9,6.2
		C131,425.5,128.2,434,121.3,437.4L121.3,437.4z"/>
	<path class="st2" d="M108,492.8c-6.2,4.6-32.7,6.6-32.7,6.6s9.7-24.7,15.9-29.3c6-4.9,14.9-4,19.8,2c4.9,6,4,14.9-2,19.8
		c-0.4,0.3-0.7,0.6-1.1,0.8L108,492.8z"/>
	<path class="st2" d="M64.6,383.3c5.6,5.4,31.5,11,31.5,11s-6.4-25.8-11.9-31.2c-5.4-5.5-14.3-5.6-19.9-0.2
		c-5.5,5.4-5.6,14.3-0.2,19.9C64.2,383,64.4,383.1,64.6,383.3L64.6,383.3z"/>
	<path class="st2" d="M49.9,448.3c6.9,3.5,33.3,1.1,33.3,1.1s-13.8-22.7-20.7-26.2c-7-3.4-15.4-0.4-18.7,6.6
		C40.5,436.6,43.2,444.7,49.9,448.3z"/>
	<path class="st2" d="M44.2,513.4c6.2,4.6,32.7,6.6,32.7,6.6s-9.7-24.7-15.9-29.3c-6-4.9-14.9-4-19.8,2s-4,14.9,2,19.8
		C43.5,512.7,43.9,513,44.2,513.4L44.2,513.4z"/>
	<path class="st2" d="M99.1,321c0,7.8-14.1,30.3-14.1,30.3S71,328.7,71,321c0-7.8,6.3-14.1,14.1-14.1C92.8,307,99.1,313.3,99.1,321
		L99.1,321z"/>
	<path class="st2" d="M122.3,364c-4.2,6.5-28.2,17.8-28.2,17.8s0.4-26.5,4.6-33s12.9-8.4,19.4-4.2
		C124.7,348.8,126.5,357.5,122.3,364L122.3,364z"/>
	<path class="st2" d="M121.3,437.4c-6.9,3.5-33.3,1.1-33.3,1.1s13.8-22.7,20.7-26.2c6.9-3.5,15.4-0.7,18.9,6.2
		C131,425.5,128.2,434,121.3,437.4L121.3,437.4z"/>
	<path class="st2" d="M108,492.8c-6.2,4.6-32.7,6.6-32.7,6.6s9.7-24.7,15.9-29.3c6-4.9,14.9-4,19.8,2c4.9,6,4,14.9-2,19.8
		c-0.4,0.3-0.7,0.6-1.1,0.8L108,492.8z"/>
	<path class="st2" d="M64.6,383.3c5.6,5.4,31.5,11,31.5,11s-6.4-25.8-11.9-31.2c-5.4-5.5-14.3-5.6-19.9-0.2
		c-5.5,5.4-5.6,14.3-0.2,19.9C64.2,383,64.4,383.1,64.6,383.3L64.6,383.3z"/>
	<path class="st2" d="M49.9,448.3c6.9,3.5,33.3,1.1,33.3,1.1s-13.8-22.7-20.7-26.2c-7-3.4-15.4-0.4-18.7,6.6
		C40.5,436.6,43.2,444.7,49.9,448.3z"/>
	<path class="st2" d="M44.2,513.4c6.2,4.6,32.7,6.6,32.7,6.6s-9.7-24.7-15.9-29.3c-6-4.9-14.9-4-19.8,2s-4,14.9,2,19.8
		C43.5,512.7,43.9,513,44.2,513.4L44.2,513.4z"/>
	<path class="st15" d="M51.5,552.4c0,0,17.1-3.4,21.7-7.9s25.1-12.5,27.4-6.8s30.8,24.9,11.4,28.3s-45.6,4.5-51.3,2.3
		S51.5,552.4,51.5,552.4z"/>
	<path class="st16" d="M111.9,563.9c-19.4,3.4-45.6,4.5-51.3,2.3c-4.3-1.7-7.4-10-8.6-13.9l-0.6,0.1c0,0,3.4,13.6,9.1,15.9
		s31.9,1.1,51.3-2.3c5.6-1,7.2-3.3,6.6-6.2C118,561.7,116.1,563.1,111.9,563.9z"/>
</g>
<g>
	<path class="st4" d="M777,589.4c16,8.1,35.6,3.2,53.8,3.7c2.5,0.1,5.1,0.3,7.1,1.7s3,3.7,4.3,5.6c5.1,7.2,15.5,9.5,24.7,8.3
		s17.5-5.3,26.1-8.4c14.9-5.3,31.9-7.8,46.6-1.9c1.3,0.7,2.7,1,4.2,0.9c3.2-0.5,4.2-4.3,6.4-6.6c4.1-4,12.9-2.9,14.7-8.2
		c1-3.1-1.4-6.2-4-8.3c-10-8.1-24.4-9.4-37.5-8.1s-26,4.7-39.2,4.7c-16.4,0-32.3-5.3-48.6-7.4c-11.3-1.5-23.6-1.3-34.2,3.1
		C789.9,573.3,787.4,584,777,589.4z"/>
	<path class="st2" d="M895.5,517.3c0,0,5.5,7.2-2.5,18s-14.7,20-12,26.8c0,0,12.1-20.1,22-20.4S906.3,529.4,895.5,517.3z"/>
	<path class="st6" d="M895.5,517.3c0.5,0.7,0.9,1.5,1.1,2.3c9.6,11.3,14.7,21.8,5.5,22.1c-8.6,0.2-18.9,15.7-21.4,19.5
		c0.1,0.3,0.2,0.6,0.3,0.9c0,0,12.1-20.1,22-20.4S906.3,529.4,895.5,517.3z"/>
	<path class="st17" d="M905.7,526.5c0,2.5-0.3,4.6-0.6,4.6s-0.6-2-0.6-4.6s0.3-1.3,0.7-1.3S905.7,524,905.7,526.5z"/>
	<path class="st17" d="M909.2,529.5c-2.2,1.2-4.2,1.9-4.3,1.6s1.5-1.5,3.7-2.7s1.3-0.3,1.5,0S911.4,528.3,909.2,529.5z"/>
	<path class="st2" d="M866.4,517.3c0,0-5.5,7.2,2.5,18s14.7,20,12,26.8c0,0-12.1-20.1-22-20.4S855.6,529.4,866.4,517.3z"/>
	<path class="st6" d="M866.4,517.3c-0.5,0.7-0.9,1.5-1.1,2.3c-9.6,11.3-14.7,21.8-5.5,22.1c8.6,0.2,18.9,15.7,21.4,19.5
		c-0.1,0.3-0.2,0.6-0.3,0.9c0,0-12.1-20.1-22-20.4S855.6,529.4,866.4,517.3z"/>
	<path class="st17" d="M856.2,526.5c0,2.5,0.3,4.6,0.6,4.6s0.6-2,0.6-4.6s-0.3-1.3-0.7-1.3S856.2,524,856.2,526.5z"/>
	<path class="st17" d="M852.7,529.5c2.2,1.2,4.2,1.9,4.3,1.6s-1.5-1.5-3.7-2.7s-1.3-0.3-1.5,0S850.5,528.3,852.7,529.5z"/>
	<path class="st15" d="M858,561.2c0,0,15.4-0.5,20-3.8s23.6-7.2,24.8-2s23.1,26.3,5.7,26.4s-40.3-2.7-44.9-5.5S858,561.2,858,561.2z
		"/>
	<path class="st16" d="M908.8,580.1c-17.3,0.1-40.3-2.7-44.9-5.5c-3.5-2.1-4.9-9.8-5.4-13.4H858c0,0,1,12.4,5.6,15.2
		s27.6,5.7,44.9,5.5c5,0,6.7-1.8,6.6-4.5C914.4,579,912.5,580,908.8,580.1z"/>
</g>
<ellipse class="st4" cx="154.4" cy="641" rx="31.7" ry="11.1"/>
<g class="st0">
	<g>
		<path class="st18" d="M643.6,601.1l31.7-8.6l0.1-31.5l-31.7,8.6L643.6,601.1z M650,574.2l19-5.1l0,18.9l-19,5.1L650,574.2z"/>
		<polygon class="st18" points="656.3,578.8 662.6,577.1 662.6,583.4 656.3,585.1 		"/>
		<polygon class="st18" points="694.3,581.2 700.6,579.5 700.6,585.8 694.3,587.5 		"/>
		<polygon class="st18" points="707,577.7 713.3,576 713.3,582.3 707,584 		"/>
		<polygon class="st18" points="707,558.8 700.7,560.5 700.7,554.2 681.7,559.4 681.6,590.9 688,589.2 688,570.3 694.3,568.6 
			694.3,574.9 713.3,569.7 713.4,550.8 713.4,550.8 707,552.5 		"/>
		<path class="st18" d="M643.7,563.3l31.7-8.6l0.1-31.5l-31.7,8.6L643.7,563.3z M650.1,536.4l19-5.1l0,18.9l-19,5.1L650.1,536.4z"/>
		<polygon class="st18" points="656.4,541 662.7,539.3 662.7,545.6 656.4,547.3 		"/>
		<path class="st18" d="M681.8,521.6l-0.1,31.5l31.7-8.6l0.1-31.5L681.8,521.6z M707.1,539.9l-19,5.1l0-18.9l19-5.1L707.1,539.9z"/>
		<polygon class="st18" points="694.4,530.7 700.8,529 700.8,535.3 694.4,537 		"/>
	</g>
</g>
</svg>
